<?xml version="1.0" encoding="utf-8"?>
<!-- Generator: Adobe Illustrator 23.0.2, SVG Export Plug-In . SVG Version: 6.00 Build 0)  -->
<svg version="1.1" id="Livello_1" xmlns="http://www.w3.org/2000/svg" xmlns:xlink="http://www.w3.org/1999/xlink" x="0px" y="0px"
	 viewBox="0 0 500 300" style="enable-background:new 0 0 500 300;" xml:space="preserve">
<g>
	<path d="M373.44,249.12c-1.03,4.37-2.26,8.65-4.98,12.33c-5.71,7.74-13.38,11.66-23,11.67c-22.48,0.01-44.95,0-67.43,0
		c-40.79,0-81.58,0.02-122.38-0.01c-13.4-0.01-24.22-8.45-27.24-21.24c-0.46-1.93-0.7-3.95-0.7-5.93
		c-0.05-17.68-0.03-35.35-0.03-53.03c0-0.47,0.06-0.94,0.11-1.58c9.03,0,18.01,0,27.17,0c0,18.11,0,36.08,0,54.26
		c63.71,0,127.25,0,191.03,0c0-17.94,0-35.98,0-54.55c9.31,0,18.38,0,27.46,0C373.44,210.4,373.44,229.76,373.44,249.12z"/>
	<path d="M264,27.36c0.07,7.11,0.2,14.22,0.2,21.33c0.01,39.91,0,79.82-0.01,119.73c0,0.93,0,1.86,0,3.19
		c11.68-11.74,22.99-23.1,34.25-34.41c6.63,6.67,12.94,13.01,19.42,19.53c-0.45,0.49-1,1.13-1.59,1.73
		c-18.27,18.27-36.53,36.53-54.81,54.79c-7.08,7.07-14.71,7.07-21.8-0.01c-18.28-18.26-36.54-36.52-54.83-54.77
		c-0.56-0.56-1.3-0.94-1.74-1.24c6.72-6.74,13.09-13.12,19.8-19.85c11.03,11.14,22.32,22.53,34.02,34.34c0-1.29,0-2.06,0-2.82
		c0-45.99,0-91.97,0.01-137.96c0-1.19,0.12-2.38,0.19-3.58C246.08,27.36,255.04,27.36,264,27.36z"/>
</g>
</svg>
