<svg xmlns="http://www.w3.org/2000/svg" viewBox="0 0 151.09 30"><defs><style>.cls-1{fill:#1ea7ff;}</style></defs><g id="Livello_2" data-name="Livello 2"><g id="Livello_2-2" data-name="Livello 2"><g id="Livello_14" data-name="Livello 14"><path class="cls-1" d="M15,0A15,15,0,1,0,30,15,15,15,0,0,0,15,0ZM27.15,12.12,25.66,13h0l-3.55-2V6.87L23.65,6A12.42,12.42,0,0,1,27.15,12.12ZM18.55,3V4.85L15,6.87l-3.56-2V3a12.5,12.5,0,0,1,7.12,0Zm2.86,12-9.65,5.52v-11ZM6.35,6l1.54.88h0v4.06h0L4.34,13h0l-1.49-.85A12.42,12.42,0,0,1,6.35,6ZM2.85,17.88,4.34,17h0l3.55,2h0v4.07h0L6.35,24A12.42,12.42,0,0,1,2.85,17.88ZM11.45,27V25.15h0l3.55-2,3.56,2h0V27a12.5,12.5,0,0,1-7.12,0Zm12.2-3-1.54-.88h0V19.06h0l3.55-2,1.49.85A12.42,12.42,0,0,1,23.65,24Z"/></g></g><path d="M52.64,5,52,8.81H46.59l-2.8,16H39l2.8-16H36.46L37.13,5Z"/><path d="M63.21,9.81A3.61,3.61,0,0,1,64.76,12l.51-2.82h4.78L67.28,24.8H62.49L63,22a6,6,0,0,1-2.29,2.21,6.42,6.42,0,0,1-3.26.82,5.17,5.17,0,0,1-4-1.64A6.53,6.53,0,0,1,52,18.81a12.7,12.7,0,0,1,.19-2.24,10.57,10.57,0,0,1,1.58-4.05,8.13,8.13,0,0,1,2.83-2.63A7.24,7.24,0,0,1,60.11,9,5.42,5.42,0,0,1,63.21,9.81Zm-4.73,4.38A4.65,4.65,0,0,0,57,17a6.25,6.25,0,0,0-.08.92,2.64,2.64,0,0,0,2.83,2.89,3.86,3.86,0,0,0,2.66-1A4.69,4.69,0,0,0,63.89,17a4.9,4.9,0,0,0,.09-.9A2.91,2.91,0,0,0,63.21,14a2.81,2.81,0,0,0-2.06-.77A3.88,3.88,0,0,0,58.48,14.19Z"/><path d="M83.3,10.45a5.48,5.48,0,0,1,1.93,3.93h-4.7a1.89,1.89,0,0,0-.73-1.51,3.12,3.12,0,0,0-1.91-.53,2.61,2.61,0,0,0-1.41.34,1.09,1.09,0,0,0-.55,1,1.12,1.12,0,0,0,.76,1,12.2,12.2,0,0,0,2.3.76,28.52,28.52,0,0,1,2.78.91,4.88,4.88,0,0,1,1.86,1.32A3.29,3.29,0,0,1,84.42,20,4.93,4.93,0,0,1,84.31,21a4.35,4.35,0,0,1-2,2.87A8.21,8.21,0,0,1,77.73,25a8.41,8.41,0,0,1-5.09-1.42,5,5,0,0,1-2-4h4.71a1.57,1.57,0,0,0,.7,1.54,3.63,3.63,0,0,0,2.1.53,2.3,2.3,0,0,0,1.43-.37,1.25,1.25,0,0,0,.47-1,1.12,1.12,0,0,0-.73-1.05,15.67,15.67,0,0,0-2.35-.8,21.76,21.76,0,0,1-2.69-.85,4.92,4.92,0,0,1-1.83-1.29,3.25,3.25,0,0,1-.77-2.25,8.7,8.7,0,0,1,.11-1,4.24,4.24,0,0,1,2-2.9A8.19,8.19,0,0,1,78.31,9,7.52,7.52,0,0,1,83.3,10.45Z"/><path d="M100.59,10.65a6,6,0,0,1,1.83,4.57H97.33A2.08,2.08,0,0,0,95,13.1a3.1,3.1,0,0,0-2.25,1A5.2,5.2,0,0,0,91.45,17a5.52,5.52,0,0,0-.12,1.17,2.84,2.84,0,0,0,.65,2,2.23,2.23,0,0,0,1.71.69,3.09,3.09,0,0,0,1.84-.56,3.32,3.32,0,0,0,1.18-1.57h5.07a9.27,9.27,0,0,1-3.38,4.58A9,9,0,0,1,93,25a6.72,6.72,0,0,1-4.83-1.73,6.24,6.24,0,0,1-1.8-4.74,13,13,0,0,1,.19-2,9.46,9.46,0,0,1,1.71-4.05A8.54,8.54,0,0,1,91.5,9.89,9.5,9.5,0,0,1,95.67,9,6.94,6.94,0,0,1,100.59,10.65Z"/><path d="M116.94,9.76a5.79,5.79,0,0,1,2.46,2.29,6.82,6.82,0,0,1,.89,3.54,11.11,11.11,0,0,1-.17,1.82A9,9,0,0,1,115,24.07a9.85,9.85,0,0,1-4.25.93,8.15,8.15,0,0,1-3.69-.8,5.83,5.83,0,0,1-2.48-2.28,6.78,6.78,0,0,1-.88-3.53,9.71,9.71,0,0,1,.17-1.82,9.06,9.06,0,0,1,1.76-4.05A8.81,8.81,0,0,1,109,9.89,10.11,10.11,0,0,1,113.29,9,8.13,8.13,0,0,1,116.94,9.76Zm-6.72,4.34A4.83,4.83,0,0,0,108.78,17a6.88,6.88,0,0,0-.11,1,2.75,2.75,0,0,0,.74,2.09,2.62,2.62,0,0,0,1.92.71,3.59,3.59,0,0,0,2.47-1A4.8,4.8,0,0,0,115.25,17a8,8,0,0,0,.08-1,2.84,2.84,0,0,0-.74-2.1,2.63,2.63,0,0,0-1.89-.73A3.66,3.66,0,0,0,110.22,14.1Z"/><path d="M139.33,9.18,136.58,24.8h-4.81l.5-2.86a6.51,6.51,0,0,1-2.38,2.22,6.73,6.73,0,0,1-3.28.81,4.76,4.76,0,0,1-3.54-1.3A5.06,5.06,0,0,1,121.8,20a9,9,0,0,1,.17-1.73l1.59-9.07h4.79l-1.51,8.48a4.3,4.3,0,0,0-.09.84,2.49,2.49,0,0,0,.68,1.86,2.54,2.54,0,0,0,1.87.66,3.55,3.55,0,0,0,2.45-.92,4.37,4.37,0,0,0,1.3-2.64v.12l1.49-8.4Z"/><path d="M146.21,19c0,.26-.05.44-.05.53a1,1,0,0,0,.33.86,1.78,1.78,0,0,0,1.1.26h1.51l-.73,4.12h-2.18a5.87,5.87,0,0,1-3.63-1,3.81,3.81,0,0,1-1.27-3.22,9.36,9.36,0,0,1,.13-1.65l1-5.74h-2.07l.73-4h2.07l.67-3.84h4.82L148,9.18h3.11l-.71,4h-3.13Z"/></g></svg>