<?xml version="1.0" encoding="utf-8"?>
<!-- Generator: Adobe Illustrator 23.0.2, SVG Export Plug-In . SVG Version: 6.00 Build 0)  -->
<svg version="1.1" id="Livello_1" xmlns="http://www.w3.org/2000/svg" xmlns:xlink="http://www.w3.org/1999/xlink" x="0px" y="0px"
	 viewBox="0 0 118.4 52.9" style="enable-background:new 0 0 118.4 52.9;" xml:space="preserve">
<style type="text/css">
	.st0{clip-path:url(#SVGID_2_);}
	.st1{fill: rgb(10, 25, 47);}
</style>
<g>
	<g>
		<defs>
			<rect id="SVGID_1_" x="-33.5" y="-18.1" width="172.9" height="107.7"/>
		</defs>
		<clipPath id="SVGID_2_">
			<use xlink:href="#SVGID_1_"  style="overflow:visible;"/>
		</clipPath>
		<g class="st0">
			<path class="st1" d="M76.7,32h-2.4V20.4h2.4V32z M64.3,32H62V20.4h2.8l4.6,8.4v-8.4h2.3v11.5h-2.8l-4.6-8.3V32z M59.3,48.1
				c-12.1,0-21.9-9.8-21.9-21.9S47.2,4.3,59.3,4.3s21.9,9.8,21.9,21.9C81.1,38.3,71.3,48.1,59.3,48.1 M93.7,36.2h-11
				c0.6-1.4,1-2.8,1.4-4.3h13.8l3.6-3.6H84.7c0.1-0.7,0.1-1.4,0.1-2.1c0-0.7,0-1.4-0.1-2.1h21.1l3.6-3.6H84.1
				c-0.3-1.5-0.8-2.9-1.4-4.3h31l3.6-3.6H80.8C76.3,5.4,68.3,0.7,59.3,0.7s-17,4.7-21.5,11.8H1.2l3.6,3.6h31c-0.6,1.4-1,2.8-1.4,4.3
				H9.1l3.6,3.6h21.1c-0.1,0.7-0.1,1.4-0.1,2.1c0,0.7,0,1.4,0.1,2.1H17l3.6,3.6h13.8c0.3,1.5,0.8,2.9,1.4,4.3H24.9l3.6,3.6h9.2
				c4.6,7.3,12.5,12,21.6,12c9,0,17-4.7,21.5-11.8H90L93.7,36.2z M59.4,32H57V20.4h2.4V32z M44.1,32h-2.3V20.4h3.4l2.9,9.2l2.9-9.2
				h3.4v11.5h-2.3v-8.5l-2.7,8.5h-2.5l-2.8-8.5V32z"/>
		</g>
	</g>
</g>
</svg>
