<?xml version="1.0" encoding="utf-8"?>
<!-- Generator: Adobe Illustrator 23.0.2, SVG Export Plug-In . SVG Version: 6.00 Build 0)  -->
<svg version="1.1" id="Livello_1" xmlns="http://www.w3.org/2000/svg" xmlns:xlink="http://www.w3.org/1999/xlink" x="0px" y="0px"
	 viewBox="0 0 80 80" style="enable-background:new 0 0 80 80;" xml:space="preserve">
<style type="text/css">
	.st0{fill:#01B2AC;stroke:#FFFFFF;stroke-width:3;stroke-miterlimit:10;}
	.st1{fill:#FFFFFF;stroke:#FFFFFF;stroke-width:0.5;stroke-miterlimit:10;}
</style>
<circle class="st0" cx="40" cy="40" r="38.5"/>
<g>
	<g>
		<g>
			<path class="st1" d="M20.61,38.29c0.23,0.09,0.51,0.09,0.74-0.02l7.32-3.33c0.47-0.22,0.67-0.79,0.44-1.26
				c-0.22-0.45-0.75-0.66-1.21-0.45l-5.12,2.33c2.44-7.32,9.25-12.21,17.1-12.21c8.22,0,15.4,5.49,17.47,13.35
				c0.13,0.5,0.65,0.8,1.14,0.67c0.5-0.13,0.8-0.65,0.67-1.14c-2.29-8.67-10.21-14.74-19.28-14.74c-8.65,0-16.17,5.4-18.88,13.47
				l-2.15-5.39c-0.16-0.49-0.69-0.76-1.18-0.6c-0.49,0.16-0.76,0.69-0.6,1.18c0.01,0.04,0.03,0.07,0.05,0.11l2.99,7.49
				C20.17,38,20.36,38.19,20.61,38.29z"/>
			<path class="st1" d="M61.94,52.11c-0.01-0.02-0.02-0.04-0.02-0.06l-2.99-7.49c-0.09-0.23-0.28-0.43-0.52-0.52
				c-0.23-0.09-0.51-0.08-0.74,0.02l-7.32,3.33c-0.48,0.2-0.7,0.75-0.51,1.23c0.2,0.48,0.75,0.7,1.23,0.51
				c0.02-0.01,0.04-0.02,0.06-0.03l5.12-2.33c-2.46,7.32-9.28,12.21-17.11,12.21c-8.22,0-15.4-5.49-17.47-13.35
				c-0.13-0.5-0.65-0.8-1.14-0.67c-0.5,0.13-0.8,0.65-0.67,1.14c2.28,8.68,10.21,14.74,19.28,14.74c8.65,0,16.16-5.4,18.88-13.47
				l2.15,5.39c0.18,0.49,0.71,0.74,1.2,0.56C61.87,53.13,62.12,52.6,61.94,52.11z"/>
		</g>
	</g>
</g>
</svg>
