<?xml version="1.0" encoding="utf-8"?>
<!-- Generator: Adobe Illustrator 23.0.1, SVG Export Plug-In . SVG Version: 6.00 Build 0)  -->
<svg version="1.1" id="Livello_1" xmlns="http://www.w3.org/2000/svg" xmlns:xlink="http://www.w3.org/1999/xlink" x="0px" y="0px"
	 viewBox="0 0 557 181" style="enable-background:new 0 0 557 181;" xml:space="preserve">
<style type="text/css">
	.st0{fill:#FFFFFF;}
	.st1{fill:none;stroke:#FFFFFF;stroke-width:0.324;stroke-linecap:round;stroke-miterlimit:3.8637;}
	.st2{fill:#E40521;}
	.st3{fill:#B2B1A7;}
	.st4{fill:#575651;}
	.st5{fill:none;stroke:#575651;stroke-width:0.1816;}
	.st6{fill:none;stroke:#E40521;stroke-width:2.693;}
	.st7{fill-rule:evenodd;clip-rule:evenodd;fill:#575651;}
	.st8{fill-rule:evenodd;clip-rule:evenodd;fill:#E40521;}
</style>
<g>
	<g>
		<path class="st0" d="M354.9,86.5c0-14.6,4.2-26.5,9.3-26.5c5.1,0,9.3,11.8,9.3,26.5c0,14.6-4.1,26.5-9.3,26.5
			C359.1,112.9,354.9,101.1,354.9,86.5L354.9,86.5L354.9,86.5z"/>
		<path class="st1" d="M354.9,86.5c0-14.6,4.2-26.5,9.3-26.5c5.1,0,9.3,11.8,9.3,26.5c0,14.6-4.1,26.5-9.3,26.5
			C359.1,112.9,354.9,101.1,354.9,86.5L354.9,86.5L354.9,86.5z"/>
		<path class="st2" d="M363.2,59.2c0.4,0,0.4,0,0.8,0c14.8,0,26.9,12,26.9,26.9c0,14.1-10.8,25.7-24.6,26.8l-0.1-0.5L366,112
			l-0.3-0.2l-0.1-0.4l-0.3-0.3l-0.1-0.5l-0.2-0.3l-0.2-0.8l-0.2-0.4l0.2-0.8v-0.8l0.1-0.8l-0.4-1.4l0.3-0.7l0.2-0.5l0.5-0.6l0.4-0.9
			l-0.3-0.6l0.4-1.3l0.1-0.9l0.5-0.6l0.3-0.1l0.7-0.9l0.4-0.6l0.4-0.6l0.1-0.8l-0.3-0.5v-0.4l-0.2-0.4l-0.1-1l0.1-0.6l-0.7-0.7
			L367,92l-0.1-0.4l-0.1-0.4l-0.4-0.5l-0.1-0.5l-0.4-0.3L366,89v-1l-0.5-0.6l-0.6-0.8l-0.2-0.9l0.1-0.5l0.1-0.7l0.2-0.7l-0.1-0.4
			v-0.5l-0.1-0.5l-0.1-0.6l0.3-0.8l0.9-0.8l0.4-0.7l0.6-0.6l0.2-1.1l0.3-0.3v-0.4l0.3-0.6l-0.1-0.7l-0.5-0.5l0.1-1.3l-0.3-0.5
			l-0.3-0.3l0.1-0.6l-0.3-0.8l-0.4-0.5v-0.5l-0.9-0.9l-0.1-0.5l-0.6-0.4l-0.3-1l-0.1-0.6l-0.5-0.3l-0.6-0.7v-0.8V66l0.2-0.7l0.1-0.7
			l-0.1-0.5l0.3-0.5l0.1-1l-0.1-0.5v-0.8l-0.2-0.7v-0.9L363.2,59.2L363.2,59.2L363.2,59.2z"/>
		<path class="st3" d="M361,113.8c0,0-27.2,0.9-28.1-26.5c0-14.5,10.3-27.1,26.2-26.9c0,0-0.5,2-0.4,2.1c0,0.1-0.3,1.9-0.3,1.9
			l-0.3,1.3v1.5c0,0,0.7,1,0.8,1c0.2,0,0.8,2.2,0.8,2.2s0.4,0.6,0.6,0.7s1.3,2,1.3,2l0.3,1.7L362,76l0.6,0.8l-0.7,2.5l-1.4,2.5
			l-1,2.4l0.3,3.2c0,0,0.9,3.7,1,3.5s1.7,3.5,1.7,3.5l-0.3,3.5l-1.7,2.4l-1.8,8.5l0.8,3.2l-1.1,0.3L361,113.8L361,113.8L361,113.8z"
			/>
		<path class="st2" d="M362.3,113.8c0,0-23.9,0-25.5-26.7c0-14.5,11.3-26.8,25.8-27c0,0-0.1,2-0.1,2.1c0.1,0.1-0.3,2-0.3,2l-0.3,1.3
			V67c0,0,0.6,1,0.8,1c0.2,0,0.8,2.2,0.8,2.2s0.4,0.6,0.6,0.7s1.3,1.9,1.3,1.9l0.3,1.7l0.1,1.2l0.5,0.8l-0.7,2.5l-1.4,2.5l-1,2.4
			l0.3,3.2c0,0,0.9,3.7,1,3.5s1.7,3.5,1.7,3.5l-0.3,3.5l-1.7,2.4l-1.8,8.5l0.8,3.2l-1.1,0.3L362.3,113.8L362.3,113.8L362.3,113.8z"
			/>
		<path class="st4" d="M362.1,60.5l-0.2,1.2l0.1,0.8v0.8l-0.3,0.6c0,0,0.2,0.7,0.1,0.7s-0.4,0.2-0.4,0.2v0.8l0.2,0.3l-0.4,0.5
			c0-0.1,0,1.4,0,1.4l0.9,1l0.3,0.1c0,0,0.3,0.3,0.2,0.4c0,0.1,0,1.1,0,1.1l0.5,0.9l0.9,0.9l0.4,0.8l0.3,1.1l-0.1,0.8l0.5,0.9V77
			l0.3,0.2c0,0,0.5,0.1,0.4,0.2s-0.2,0.5-0.2,0.5l-0.4,0.5v0.7l-0.4,0.3v0.8l-0.9,0.9l-0.2,0.4l-1,0.8l-0.6,0.9v2.7l-0.5,0.5v0.7
			l0.3,0.3c0,0-0.3,0.7,0,0.9c0.2,0.2,0.5,0.6,0.5,0.6l0.3,0.9l-0.2,1.6l0.8,1.2l0.1,1l0.8,0.8v0.4l0.4,0.4v0.5l-0.3,0.5l0.2,0.6
			l0.3,0.5c0,0,0.2,0.8,0.1,0.9c-0.2,0.1-0.9,1.5-0.9,1.5s-0.5,0.4-0.6,0.4s-1.1,1-1.1,1l-0.1,1.5l-0.4,0.5c0,0,0,0.5,0,0.6
			c0,0,0.4,0.5,0.3,0.6s-0.5,0.4-0.5,0.4l-0.1,0.7c0,0-0.6,0.1-0.7,0c0-0.1-0.3,1.6-0.3,1.6s0.3,0.7,0.2,0.8c0,0.1,0.2,0.9,0.2,1
			l-0.2,0.6l-0.1,0.7c-0.1,0-0.2,0.5-0.2,0.5l0.1,0.7l0.4,0.2l0.1,0.6l0.1,0.3l0.1,0.6l0.3,0.4l0.3,0.7c0,0,1,0.1,1.1,0l1.7,0.1
			l0.7-0.1c0,0,0.9,0.6,0-0.6c-0.9-1.1-1.6-2.1-1.6-2.2s0.1-0.8,0.1-0.9s0.1-0.4,0.1-0.5s-0.2-0.1-0.3-0.8c-0.1-0.7-0.1-0.4,0-0.5
			l0.7-0.6l-0.4-1.2c0,0-0.2-0.7-0.2-0.8c0-0.1,0.2-0.6,0.2-0.7s0.4-0.6,0.4-0.6l0.6-0.9c0,0-0.2-0.3-0.1-0.4s0.3-0.4,0.2-0.5
			c-0.1-0.1-0.2-0.6-0.1-0.7c0-0.1,0.6-0.9,0.5-1s-0.5-0.4-0.5-0.4l1.1-1.1v-0.3c0,0,0.5,0,0.5-0.1s0.2-0.4,0.2-0.4l0.1-0.4l0.3-0.3
			l0.6-1.3c0,0-0.4-0.6-0.5-1c0-0.3,0.1-1.6,0.1-1.6s-0.9-0.7-1-1.2s-0.2-0.6-0.2-0.6l-0.7-1.2V91l-0.2-0.3l0.1-1.2
			c0,0-0.1-0.6-0.1-0.7s-1-1.5-1-1.7c-0.1-0.2-0.1-1.4-0.1-1.4l0.2-0.6c0,0,0-0.8,0.1-1.2c0.1-0.4,0.2-0.6,0.2-0.6l-0.2-0.7l0.3-0.3
			l0.6-0.6v-0.4l0.3-0.3l0.1-0.6l0.7-0.7v-0.8l0.5-0.6c0,0,0.1-1.1,0-1.3c-0.1-0.2-0.7-0.8-0.7-0.8l-0.2-3.4c0,0-0.4-0.2-0.7-0.8
			c-0.3-0.6-0.3-0.8-0.3-0.8h-0.3l-0.9-0.8l-0.1-1.5l-0.7-1h-0.3l-0.2-0.5v-1.9c0,0-0.1-0.4,0-0.5s0-0.7,0.2-1.1s0.5-0.2,0.4-0.4
			s-0.2-1-0.2-1.1s-0.3-0.3-0.3-0.3s-0.1-0.7,0-1s0.1-0.4,0-0.5C362.4,60.4,362.1,60.5,362.1,60.5L362.1,60.5L362.1,60.5z"/>
		<path class="st4" d="M304.5,122.7c-0.1-0.5-0.3-1-0.6-1.3c-0.4-0.3-0.9-0.4-1.5-0.4c-0.7,0-1.2,0.1-1.5,0.4s-0.5,0.6-0.5,1.1
			c0,0.3,0.1,0.6,0.3,0.7c0.2,0.2,0.7,0.3,1.4,0.5l1.5,0.4c0.8,0.2,1.4,0.5,1.7,0.8c0.3,0.4,0.5,0.9,0.5,1.6c0,0.8-0.3,1.4-0.9,1.9
			s-1.4,0.7-2.4,0.7c-1.1,0-2-0.3-2.6-0.8s-0.9-1.2-0.9-2.1V126h1.1c0,0.6,0.2,1.1,0.7,1.4c0.4,0.3,1,0.5,1.8,0.5
			c0.7,0,1.3-0.1,1.6-0.4c0.4-0.2,0.6-0.6,0.6-1.1c0-0.4-0.1-0.7-0.4-0.9c-0.2-0.2-0.7-0.4-1.5-0.6l-1.5-0.4
			c-0.8-0.2-1.3-0.4-1.6-0.7c-0.3-0.3-0.5-0.8-0.5-1.3c0-0.8,0.3-1.5,0.8-2c0.6-0.5,1.3-0.7,2.3-0.7s1.7,0.2,2.3,0.7
			c0.6,0.5,0.9,1.1,0.9,2h-1.1V122.7z"/>
		<path class="st5" d="M304.5,122.7c-0.1-0.5-0.3-1-0.6-1.3c-0.4-0.3-0.9-0.4-1.5-0.4c-0.7,0-1.2,0.1-1.5,0.4s-0.5,0.6-0.5,1.1
			c0,0.3,0.1,0.6,0.3,0.7c0.2,0.2,0.7,0.3,1.4,0.5l1.5,0.4c0.8,0.2,1.4,0.5,1.7,0.8c0.3,0.4,0.5,0.9,0.5,1.6c0,0.8-0.3,1.4-0.9,1.9
			s-1.4,0.7-2.4,0.7c-1.1,0-2-0.3-2.6-0.8s-0.9-1.2-0.9-2.1V126h1.1c0,0.6,0.2,1.1,0.7,1.4c0.4,0.3,1,0.5,1.8,0.5
			c0.7,0,1.3-0.1,1.6-0.4c0.4-0.2,0.6-0.6,0.6-1.1c0-0.4-0.1-0.7-0.4-0.9c-0.2-0.2-0.7-0.4-1.5-0.6l-1.5-0.4
			c-0.8-0.2-1.3-0.4-1.6-0.7c-0.3-0.3-0.5-0.8-0.5-1.3c0-0.8,0.3-1.5,0.8-2c0.6-0.5,1.3-0.7,2.3-0.7s1.7,0.2,2.3,0.7
			c0.6,0.5,0.9,1.1,0.9,2h-1.1V122.7z"/>
		<polygon class="st4" points="307,128.8 307,120.2 313.3,120.2 313.3,120.7 313.3,121.2 308.2,121.2 308.2,123.8 312.9,123.8 
			312.9,124.4 312.9,124.9 308.2,124.9 308.2,127.8 313.4,127.8 313.4,128.3 313.4,128.8 		"/>
		<polygon class="st5" points="307,128.8 307,120.2 313.3,120.2 313.3,120.7 313.3,121.2 308.2,121.2 308.2,123.8 312.9,123.8 
			312.9,124.4 312.9,124.9 308.2,124.9 308.2,127.8 313.4,127.8 313.4,128.3 313.4,128.8 		"/>
		<polygon class="st4" points="313.9,127.8 319.2,121.2 314.3,121.2 314.3,120.7 314.3,120.2 320.7,120.2 320.7,120.7 320.7,121.2 
			315.3,127.8 320.7,127.8 320.7,128.3 320.7,128.8 313.9,128.8 313.9,128.3 		"/>
		<polygon class="st5" points="313.9,127.8 319.2,121.2 314.3,121.2 314.3,120.7 314.3,120.2 320.7,120.2 320.7,120.7 320.7,121.2 
			315.3,127.8 320.7,127.8 320.7,128.3 320.7,128.8 313.9,128.8 313.9,128.3 		"/>
		<polygon class="st4" points="321.7,120.2 322.3,120.2 322.8,120.2 322.8,128.8 322.3,128.8 321.7,128.8 		"/>
		<polygon class="st5" points="321.7,120.2 322.3,120.2 322.8,120.2 322.8,128.8 322.3,128.8 321.7,128.8 		"/>
		<path class="st4" d="M330.4,127c0.6-0.6,0.8-1.5,0.8-2.5s-0.3-1.9-0.8-2.5s-1.3-1-2.2-1c-0.9,0-1.6,0.3-2.2,1
			c-0.6,0.6-0.8,1.5-0.8,2.5s0.3,1.9,0.8,2.5s1.3,1,2.2,1S329.8,127.7,330.4,127L330.4,127z M325.2,127.8c-0.8-0.8-1.2-1.9-1.2-3.3
			s0.4-2.5,1.2-3.3c0.8-0.8,1.8-1.3,3-1.3c1.3,0,2.3,0.4,3,1.3c0.8,0.8,1.2,1.9,1.2,3.3s-0.4,2.4-1.2,3.3c-0.8,0.8-1.8,1.3-3,1.3
			C327,129,326,128.6,325.2,127.8L325.2,127.8z"/>
		<path class="st5" d="M330.4,127c0.6-0.6,0.8-1.5,0.8-2.5s-0.3-1.9-0.8-2.5s-1.3-1-2.2-1c-0.9,0-1.6,0.3-2.2,1
			c-0.6,0.6-0.8,1.5-0.8,2.5s0.3,1.9,0.8,2.5s1.3,1,2.2,1S329.8,127.7,330.4,127L330.4,127z M325.2,127.8c-0.8-0.8-1.2-1.9-1.2-3.3
			s0.4-2.5,1.2-3.3c0.8-0.8,1.8-1.3,3-1.3c1.3,0,2.3,0.4,3,1.3c0.8,0.8,1.2,1.9,1.2,3.3s-0.4,2.4-1.2,3.3c-0.8,0.8-1.8,1.3-3,1.3
			C327,129,326,128.6,325.2,127.8L325.2,127.8z"/>
		<polygon class="st4" points="334.6,128.8 334,128.8 333.5,128.8 333.5,120.2 334.1,120.2 334.9,120.2 339.2,127.2 339.2,120.2 
			339.7,120.2 340.3,120.2 340.3,128.8 339.6,128.8 339,128.8 334.6,121.8 		"/>
		<polygon class="st5" points="334.6,128.8 334,128.8 333.5,128.8 333.5,120.2 334.1,120.2 334.9,120.2 339.2,127.2 339.2,120.2 
			339.7,120.2 340.3,120.2 340.3,128.8 339.6,128.8 339,128.8 334.6,121.8 		"/>
		<polygon class="st4" points="341.9,128.8 341.9,120.2 348.2,120.2 348.2,120.7 348.2,121.2 343,121.2 343,123.8 347.7,123.8 
			347.7,124.4 347.7,124.9 343,124.9 343,127.8 348.2,127.8 348.2,128.3 348.2,128.8 		"/>
		<polygon class="st5" points="341.9,128.8 341.9,120.2 348.2,120.2 348.2,120.7 348.2,121.2 343,121.2 343,123.8 347.7,123.8 
			347.7,124.4 347.7,124.9 343,124.9 343,127.8 348.2,127.8 348.2,128.3 348.2,128.8 		"/>
		<path class="st4" d="M353.7,124.2h2.3c0.6,0,1-0.1,1.3-0.4s0.4-0.7,0.4-1.2s-0.1-0.8-0.4-1.1c-0.3-0.2-0.7-0.3-1.3-0.3h-2.3V124.2
			L353.7,124.2z M352.5,120.2h0.6h3.2c0.8,0,1.5,0.2,2,0.6s0.7,1,0.7,1.7c0,0.8-0.2,1.5-0.7,1.9c-0.5,0.5-1.1,0.7-2,0.7
			c-1.1,0-2,0-2.6,0v3.6h-0.6h-0.6V120.2L352.5,120.2z"/>
		<path class="st5" d="M353.7,124.2h2.3c0.6,0,1-0.1,1.3-0.4s0.4-0.7,0.4-1.2s-0.1-0.8-0.4-1.1c-0.3-0.2-0.7-0.3-1.3-0.3h-2.3V124.2
			L353.7,124.2z M352.5,120.2h0.6h3.2c0.8,0,1.5,0.2,2,0.6s0.7,1,0.7,1.7c0,0.8-0.2,1.5-0.7,1.9c-0.5,0.5-1.1,0.7-2,0.7
			c-1.1,0-2,0-2.6,0v3.6h-0.6h-0.6V120.2L352.5,120.2z"/>
		<path class="st4" d="M361.3,124.1h2.9c0.5,0,0.9-0.1,1.2-0.4c0.3-0.2,0.4-0.6,0.4-1.1s-0.1-0.9-0.4-1.1s-0.7-0.3-1.3-0.3h-2.8
			L361.3,124.1L361.3,124.1z M360.2,120.2h0.6h3.4c0.9,0,1.6,0.2,2.1,0.6s0.7,1,0.7,1.7c0,0.8-0.2,1.3-0.7,1.8
			c-0.1,0.1-0.3,0.2-0.4,0.3l0.2,0.1c0.5,0.3,0.8,0.8,0.8,1.5v1.6c0,0.3,0,0.4,0.1,0.6c0.1,0.1,0.2,0.2,0.3,0.3v0.2h-1.4
			c0-0.1-0.1-0.3-0.1-0.5c0-0.3-0.1-0.6-0.1-1v-0.7c0-0.5-0.1-0.9-0.4-1.1c-0.2-0.2-0.6-0.3-1.2-0.3h-2.8v3.7h-0.6h-0.6v-8.8H360.2z
			"/>
		<path class="st5" d="M361.3,124.1h2.9c0.5,0,0.9-0.1,1.2-0.4c0.3-0.2,0.4-0.6,0.4-1.1s-0.1-0.9-0.4-1.1s-0.7-0.3-1.3-0.3h-2.8
			L361.3,124.1L361.3,124.1z M360.2,120.2h0.6h3.4c0.9,0,1.6,0.2,2.1,0.6s0.7,1,0.7,1.7c0,0.8-0.2,1.3-0.7,1.8
			c-0.1,0.1-0.3,0.2-0.4,0.3l0.2,0.1c0.5,0.3,0.8,0.8,0.8,1.5v1.6c0,0.3,0,0.4,0.1,0.6c0.1,0.1,0.2,0.2,0.3,0.3v0.2h-1.4
			c0-0.1-0.1-0.3-0.1-0.5c0-0.3-0.1-0.6-0.1-1v-0.7c0-0.5-0.1-0.9-0.4-1.1c-0.2-0.2-0.6-0.3-1.2-0.3h-2.8v3.7h-0.6h-0.6v-8.8H360.2z
			"/>
		<path class="st4" d="M374.2,127c0.6-0.6,0.8-1.5,0.8-2.5s-0.3-1.9-0.8-2.5s-1.3-1-2.2-1c-0.9,0-1.6,0.3-2.2,1
			c-0.5,0.6-0.8,1.5-0.8,2.5s0.3,1.9,0.8,2.5c0.6,0.6,1.3,1,2.2,1C373,128,373.7,127.7,374.2,127L374.2,127z M369,127.8
			c-0.8-0.8-1.2-1.9-1.2-3.3s0.4-2.5,1.2-3.3c0.8-0.8,1.8-1.3,3-1.3c1.3,0,2.3,0.4,3,1.3c0.8,0.8,1.2,1.9,1.2,3.3s-0.4,2.4-1.2,3.3
			c-0.8,0.8-1.8,1.3-3,1.3C370.8,129,369.8,128.6,369,127.8L369,127.8z"/>
		<path class="st5" d="M374.2,127c0.6-0.6,0.8-1.5,0.8-2.5s-0.3-1.9-0.8-2.5s-1.3-1-2.2-1c-0.9,0-1.6,0.3-2.2,1
			c-0.5,0.6-0.8,1.5-0.8,2.5s0.3,1.9,0.8,2.5c0.6,0.6,1.3,1,2.2,1C373,128,373.7,127.7,374.2,127L374.2,127z M369,127.8
			c-0.8-0.8-1.2-1.9-1.2-3.3s0.4-2.5,1.2-3.3c0.8-0.8,1.8-1.3,3-1.3c1.3,0,2.3,0.4,3,1.3c0.8,0.8,1.2,1.9,1.2,3.3s-0.4,2.4-1.2,3.3
			c-0.8,0.8-1.8,1.3-3,1.3C370.8,129,369.8,128.6,369,127.8L369,127.8z"/>
		<polygon class="st4" points="376.6,120.2 377.3,120.2 377.9,120.2 380.4,127.6 380.4,127.6 382.9,120.2 383.5,120.2 384.1,120.2 
			381,128.8 380.4,128.8 379.8,128.8 		"/>
		<polygon class="st5" points="376.6,120.2 377.3,120.2 377.9,120.2 380.4,127.6 380.4,127.6 382.9,120.2 383.5,120.2 384.1,120.2 
			381,128.8 380.4,128.8 379.8,128.8 		"/>
		<polygon class="st4" points="385.1,120.2 385.7,120.2 386.3,120.2 386.3,128.8 385.7,128.8 385.1,128.8 		"/>
		<polygon class="st5" points="385.1,120.2 385.7,120.2 386.3,120.2 386.3,128.8 385.7,128.8 385.1,128.8 		"/>
		<polygon class="st4" points="389,128.8 388.5,128.8 387.9,128.8 387.9,120.2 388.6,120.2 389.3,120.2 393.6,127.2 393.6,120.2 
			394.2,120.2 394.8,120.2 394.8,128.8 394.1,128.8 393.5,128.8 389,121.8 		"/>
		<polygon class="st5" points="389,128.8 388.5,128.8 387.9,128.8 387.9,120.2 388.6,120.2 389.3,120.2 393.6,127.2 393.6,120.2 
			394.2,120.2 394.8,120.2 394.8,128.8 394.1,128.8 393.5,128.8 389,121.8 		"/>
		<path class="st4" d="M403.5,125.6c-0.1,1.1-0.6,1.9-1.2,2.5c-0.7,0.6-1.5,0.9-2.5,0.9c-1.2,0-2.1-0.4-2.8-1.2
			c-0.7-0.8-1.1-1.9-1.1-3.3s0.4-2.5,1.1-3.3s1.7-1.2,2.9-1.2c1,0,1.8,0.2,2.4,0.7s1,1.2,1.1,2.1h-1.1c-0.1-0.6-0.4-1-0.8-1.3
			s-1-0.5-1.6-0.5c-0.9,0-1.5,0.3-2.1,1c-0.5,0.6-0.8,1.5-0.8,2.6s0.2,2,0.7,2.6s1.2,0.9,2.1,0.9c0.7,0,1.2-0.2,1.7-0.6
			c0.4-0.4,0.7-1,0.9-1.8L403.5,125.6L403.5,125.6z"/>
		<path class="st5" d="M403.5,125.6c-0.1,1.1-0.6,1.9-1.2,2.5c-0.7,0.6-1.5,0.9-2.5,0.9c-1.2,0-2.1-0.4-2.8-1.2
			c-0.7-0.8-1.1-1.9-1.1-3.3s0.4-2.5,1.1-3.3s1.7-1.2,2.9-1.2c1,0,1.8,0.2,2.4,0.7s1,1.2,1.1,2.1h-1.1c-0.1-0.6-0.4-1-0.8-1.3
			s-1-0.5-1.6-0.5c-0.9,0-1.5,0.3-2.1,1c-0.5,0.6-0.8,1.5-0.8,2.6s0.2,2,0.7,2.6s1.2,0.9,2.1,0.9c0.7,0,1.2-0.2,1.7-0.6
			c0.4-0.4,0.7-1,0.9-1.8L403.5,125.6L403.5,125.6z"/>
		<polygon class="st4" points="404.7,120.2 405.3,120.2 405.9,120.2 405.9,128.8 405.3,128.8 404.7,128.8 		"/>
		<polygon class="st5" points="404.7,120.2 405.3,120.2 405.9,120.2 405.9,128.8 405.3,128.8 404.7,128.8 		"/>
		<path class="st4" d="M409.2,125.3h2.7l-1.3-3.8L409.2,125.3L409.2,125.3z M410,120.2h0.7h0.7l3.1,8.6h-0.6h-0.6l-0.9-2.5H409
			l-0.9,2.5h-0.6h-0.6L410,120.2L410,120.2z"/>
		<path class="st5" d="M409.2,125.3h2.7l-1.3-3.8L409.2,125.3L409.2,125.3z M410,120.2h0.7h0.7l3.1,8.6h-0.6h-0.6l-0.9-2.5H409
			l-0.9,2.5h-0.6h-0.6L410,120.2L410,120.2z"/>
		<polygon class="st4" points="415.1,128.8 415.1,120.2 415.7,120.2 416.3,120.2 416.3,127.8 420.7,127.8 420.7,128.3 420.7,128.8 
					"/>
		<polygon class="st5" points="415.1,128.8 415.1,120.2 415.7,120.2 416.3,120.2 416.3,127.8 420.7,127.8 420.7,128.3 420.7,128.8 
					"/>
		<polygon class="st4" points="421.6,128.8 421.6,120.2 427.9,120.2 427.9,120.7 427.9,121.2 422.8,121.2 422.8,123.8 427.4,123.8 
			427.4,124.4 427.4,124.9 422.8,124.9 422.8,127.8 427.9,127.8 427.9,128.3 427.9,128.8 		"/>
		<polygon class="st5" points="421.6,128.8 421.6,120.2 427.9,120.2 427.9,120.7 427.9,121.2 422.8,121.2 422.8,123.8 427.4,123.8 
			427.4,124.4 427.4,124.9 422.8,124.9 422.8,127.8 427.9,127.8 427.9,128.3 427.9,128.8 		"/>
		<path class="st4" d="M336.1,144.7h2.1c0.8,0,1.5-0.3,1.9-0.9s0.7-1.4,0.7-2.4c0-1.1-0.2-1.9-0.7-2.5c-0.4-0.6-1.1-0.9-1.9-0.9H336
			v6.7H336.1z M334.9,137h0.6h3c1.1,0,2,0.4,2.6,1.2c0.7,0.8,1,1.8,1,3.1s-0.3,2.4-1,3.1c-0.7,0.8-1.6,1.2-2.7,1.2h-2.9h-0.6V137
			L334.9,137z"/>
		<path class="st5" d="M336.1,144.7h2.1c0.8,0,1.5-0.3,1.9-0.9s0.7-1.4,0.7-2.4c0-1.1-0.2-1.9-0.7-2.5c-0.4-0.6-1.1-0.9-1.9-0.9H336
			v6.7H336.1z M334.9,137h0.6h3c1.1,0,2,0.4,2.6,1.2c0.7,0.8,1,1.8,1,3.1s-0.3,2.4-1,3.1c-0.7,0.8-1.6,1.2-2.7,1.2h-2.9h-0.6V137
			L334.9,137z"/>
		<polygon class="st4" points="343.3,137 343.9,137 344.5,137 344.5,145.7 343.9,145.7 343.3,145.7 		"/>
		<polygon class="st5" points="343.3,137 343.9,137 344.5,137 344.5,145.7 343.9,145.7 343.3,145.7 		"/>
		<polygon class="st4" points="350.2,145.7 349.6,145.7 349.1,145.7 349.1,137 349.9,137 350.7,137 353.2,144.4 353.2,144.4 
			355.7,137 356.5,137 357.3,137 357.3,145.7 356.8,145.7 356.2,145.7 356.2,138.4 356.2,138.4 353.8,145.7 353.2,145.7 
			352.6,145.7 350.2,138.4 350.2,138.4 		"/>
		<polygon class="st5" points="350.2,145.7 349.6,145.7 349.1,145.7 349.1,137 349.9,137 350.7,137 353.2,144.4 353.2,144.4 
			355.7,137 356.5,137 357.3,137 357.3,145.7 356.8,145.7 356.2,145.7 356.2,138.4 356.2,138.4 353.8,145.7 353.2,145.7 
			352.6,145.7 350.2,138.4 350.2,138.4 		"/>
		<polygon class="st4" points="358.9,137 359.5,137 360.1,137 360.1,145.7 359.5,145.7 358.9,145.7 		"/>
		<polygon class="st5" points="358.9,137 359.5,137 360.1,137 360.1,145.7 359.5,145.7 358.9,145.7 		"/>
		<polygon class="st4" points="361.7,145.7 361.7,137 362.3,137 362.9,137 362.9,144.6 367.3,144.6 367.3,145.1 367.3,145.7 		"/>
		<polygon class="st5" points="361.7,145.7 361.7,137 362.3,137 362.9,137 362.9,144.6 367.3,144.6 367.3,145.1 367.3,145.7 		"/>
		<path class="st4" d="M369.8,142.1h2.7l-1.3-3.8L369.8,142.1L369.8,142.1z M370.5,137h0.7h0.7l3.1,8.6h-0.6h-0.6l-0.9-2.5h-3.4
			l-0.9,2.5H368h-0.6L370.5,137L370.5,137z"/>
		<path class="st5" d="M369.8,142.1h2.7l-1.3-3.8L369.8,142.1L369.8,142.1z M370.5,137h0.7h0.7l3.1,8.6h-0.6h-0.6l-0.9-2.5h-3.4
			l-0.9,2.5H368h-0.6L370.5,137L370.5,137z"/>
		<polygon class="st4" points="376.8,145.7 376.2,145.7 375.7,145.7 375.7,137 376.4,137 377.1,137 381.4,144 381.4,137 382,137 
			382.5,137 382.5,145.7 381.9,145.7 381.2,145.7 376.8,138.6 		"/>
		<polygon class="st5" points="376.8,145.7 376.2,145.7 375.7,145.7 375.7,137 376.4,137 377.1,137 381.4,144 381.4,137 382,137 
			382.5,137 382.5,145.7 381.9,145.7 381.2,145.7 376.8,138.6 		"/>
		<path class="st4" d="M389.9,143.9c0.5-0.6,0.8-1.5,0.8-2.5s-0.3-1.9-0.8-2.5s-1.3-1-2.2-1c-0.9,0-1.6,0.3-2.2,1
			c-0.5,0.6-0.8,1.5-0.8,2.5s0.3,1.9,0.8,2.5s1.3,1,2.2,1C388.6,144.8,389.4,144.5,389.9,143.9L389.9,143.9z M384.7,144.6
			c-0.8-0.8-1.2-1.9-1.2-3.3c0-1.4,0.4-2.5,1.2-3.3c0.8-0.8,1.8-1.3,3-1.3c1.3,0,2.3,0.4,3,1.3c0.8,0.8,1.2,1.9,1.2,3.3
			c0,1.4-0.4,2.5-1.2,3.3c-0.8,0.8-1.8,1.2-3,1.2C386.5,145.9,385.5,145.5,384.7,144.6L384.7,144.6z"/>
		<path class="st5" d="M389.9,143.9c0.5-0.6,0.8-1.5,0.8-2.5s-0.3-1.9-0.8-2.5s-1.3-1-2.2-1c-0.9,0-1.6,0.3-2.2,1
			c-0.5,0.6-0.8,1.5-0.8,2.5s0.3,1.9,0.8,2.5s1.3,1,2.2,1C388.6,144.8,389.4,144.5,389.9,143.9L389.9,143.9z M384.7,144.6
			c-0.8-0.8-1.2-1.9-1.2-3.3c0-1.4,0.4-2.5,1.2-3.3c0.8-0.8,1.8-1.3,3-1.3c1.3,0,2.3,0.4,3,1.3c0.8,0.8,1.2,1.9,1.2,3.3
			c0,1.4-0.4,2.5-1.2,3.3c-0.8,0.8-1.8,1.2-3,1.2C386.5,145.9,385.5,145.5,384.7,144.6L384.7,144.6z"/>
		<line class="st6" x1="292.3" y1="173.6" x2="292.3" y2="59.4"/>
		<path class="st7" d="M83.3,143.1c0,0.3-0.1,0.7-0.2,1.1c-0.2,0.4-0.4,0.8-0.7,1.2c-0.3,0.4-0.7,0.7-1.2,0.9s-1.1,0.4-1.8,0.4
			c-0.5,0-1-0.1-1.4-0.2c-0.4-0.1-0.8-0.3-1.1-0.5c-0.3-0.2-0.6-0.5-0.9-0.9c-0.3-0.3-0.5-0.7-0.7-1.1c-0.2-0.4-0.3-0.9-0.4-1.3
			c-0.1-0.5-0.1-1-0.1-1.5c0-0.9,0.1-1.6,0.3-2.3c0.2-0.7,0.6-1.3,1-1.8s0.9-0.9,1.5-1.1c0.6-0.3,1.2-0.4,1.8-0.4
			c0.8,0,1.5,0.2,2.1,0.5s1.1,0.8,1.4,1.3s0.5,1,0.5,1.4c0,0.2-0.1,0.5-0.2,0.7c-0.2,0.2-0.3,0.3-0.6,0.3c-0.3,0-0.4-0.1-0.6-0.2
			c-0.1-0.1-0.3-0.4-0.4-0.7c-0.3-0.5-0.6-0.9-0.9-1.2s-0.8-0.4-1.3-0.4c-0.8,0-1.5,0.3-1.9,1c-0.5,0.7-0.7,1.7-0.7,2.9
			c0,0.8,0.1,1.5,0.3,2.1c0.2,0.6,0.5,1,0.9,1.2c0.4,0.3,0.8,0.4,1.4,0.4s1-0.2,1.4-0.5s0.7-0.8,0.9-1.4c0.1-0.3,0.2-0.5,0.3-0.7
			c0.1-0.2,0.3-0.3,0.6-0.3c0.2,0,0.4,0.1,0.6,0.3C83.2,142.6,83.3,142.8,83.3,143.1L83.3,143.1z"/>
		<path class="st7" d="M89.3,135.5c1,0,1.9,0.2,2.6,0.7c0.7,0.4,1.3,1.1,1.6,1.9c0.4,0.8,0.6,1.8,0.6,2.9c0,0.8-0.1,1.6-0.3,2.3
			c-0.2,0.7-0.5,1.3-0.9,1.8s-0.9,0.9-1.5,1.1c-0.6,0.3-1.3,0.4-2,0.4c-0.8,0-1.4-0.1-2-0.4c-0.6-0.3-1.1-0.7-1.5-1.2
			s-0.7-1.1-0.9-1.8c-0.2-0.7-0.3-1.4-0.3-2.3c0-0.8,0.1-1.6,0.3-2.3c0.2-0.7,0.5-1.3,0.9-1.8s0.9-0.9,1.5-1.1
			C87.9,135.7,88.6,135.5,89.3,135.5L89.3,135.5z M92.1,141.1c0-0.8-0.1-1.5-0.3-2c-0.2-0.6-0.6-1-1-1.3s-0.9-0.4-1.5-0.4
			c-0.4,0-0.8,0.1-1.1,0.2c-0.3,0.2-0.6,0.4-0.9,0.7c-0.2,0.3-0.4,0.7-0.6,1.2c-0.1,0.5-0.2,1-0.2,1.6s0.1,1.2,0.2,1.7
			s0.3,0.9,0.6,1.2c0.3,0.3,0.5,0.6,0.9,0.7c0.3,0.2,0.7,0.2,1.1,0.2c0.5,0,1-0.1,1.4-0.4c0.4-0.3,0.8-0.7,1-1.3
			C92,142.6,92.1,141.9,92.1,141.1L92.1,141.1z"/>
		<path class="st7" d="M98.3,136.8l3.8,6.3v-6.4c0-0.4,0.1-0.7,0.2-0.9c0.2-0.2,0.4-0.3,0.7-0.3c0.3,0,0.5,0.1,0.7,0.3
			s0.2,0.5,0.2,0.9v8.5c0,0.9-0.4,1.4-1.1,1.4c-0.2,0-0.3,0-0.5-0.1c-0.1-0.1-0.3-0.1-0.4-0.3c-0.1-0.1-0.2-0.3-0.3-0.4
			c-0.1-0.2-0.2-0.3-0.3-0.5l-3.7-6.3v6.3c0,0.4-0.1,0.7-0.3,0.9c-0.2,0.2-0.4,0.3-0.7,0.3c-0.3,0-0.5-0.1-0.7-0.3s-0.2-0.5-0.2-0.9
			V137c0-0.4,0-0.6,0.1-0.8s0.2-0.4,0.4-0.5c0.2-0.1,0.4-0.2,0.6-0.2s0.3,0,0.4,0.1s0.2,0.2,0.3,0.3c0.1,0.1,0.2,0.2,0.3,0.4
			C98.1,136.5,98.2,136.7,98.3,136.8L98.3,136.8z"/>
		<path class="st7" d="M112.3,137.5h-2.1v7.8c0,0.5-0.1,0.8-0.3,1c-0.2,0.2-0.4,0.3-0.7,0.3c-0.3,0-0.5-0.1-0.7-0.3s-0.3-0.6-0.3-1
			v-7.8h-2.1c-0.3,0-0.6-0.1-0.7-0.2c-0.2-0.2-0.2-0.4-0.2-0.7s0.1-0.5,0.3-0.7c0.2-0.2,0.4-0.2,0.7-0.2h6.2c0.3,0,0.6,0.1,0.8,0.3
			c0.2,0.2,0.2,0.4,0.2,0.6c0,0.3-0.1,0.5-0.2,0.7C112.9,137.4,112.7,137.5,112.3,137.5L112.3,137.5z"/>
		<path class="st7" d="M117.1,141.9h-0.7v3.5c0,0.5-0.1,0.8-0.3,1c-0.2,0.2-0.4,0.3-0.7,0.3c-0.3,0-0.6-0.1-0.7-0.3
			c-0.2-0.2-0.3-0.6-0.3-1v-8.3c0-0.5,0.1-0.8,0.3-1c0.2-0.2,0.5-0.3,0.9-0.3h3.2c0.4,0,0.8,0,1.1,0.1c0.3,0,0.6,0.1,0.8,0.2
			c0.3,0.1,0.6,0.3,0.8,0.6c0.2,0.3,0.4,0.6,0.5,0.9c0.1,0.3,0.2,0.7,0.2,1.1c0,0.8-0.2,1.4-0.6,1.9s-1,0.8-1.9,1
			c0.4,0.2,0.7,0.5,1,0.9s0.6,0.8,0.8,1.3c0.2,0.5,0.4,0.9,0.6,1.2c0.1,0.4,0.2,0.6,0.2,0.7c0,0.1,0,0.3-0.1,0.4
			c-0.1,0.1-0.2,0.2-0.3,0.3c-0.1,0.1-0.3,0.1-0.5,0.1s-0.4-0.1-0.6-0.2c-0.2-0.1-0.3-0.3-0.4-0.4c-0.1-0.2-0.2-0.4-0.4-0.8
			l-0.8-1.4c-0.3-0.5-0.5-0.9-0.8-1.2c-0.2-0.3-0.4-0.5-0.7-0.6C117.8,141.9,117.5,141.9,117.1,141.9L117.1,141.9z M118.3,137.4
			h-1.8v3h1.8c0.5,0,0.9,0,1.2-0.1c0.3-0.1,0.6-0.2,0.7-0.5c0.2-0.2,0.3-0.5,0.3-0.9c0-0.3-0.1-0.6-0.2-0.8s-0.3-0.4-0.6-0.5
			C119.4,137.4,118.9,137.4,118.3,137.4L118.3,137.4z"/>
		<path class="st7" d="M128.5,135.5c1,0,1.9,0.2,2.6,0.7c0.7,0.4,1.3,1.1,1.6,1.9c0.4,0.8,0.6,1.8,0.6,2.9c0,0.8-0.1,1.6-0.3,2.3
			s-0.5,1.3-0.9,1.8s-0.9,0.9-1.5,1.1c-0.6,0.3-1.3,0.4-2,0.4c-0.8,0-1.4-0.1-2-0.4c-0.6-0.3-1.1-0.7-1.5-1.2s-0.7-1.1-0.9-1.8
			c-0.2-0.7-0.3-1.4-0.3-2.3c0-0.8,0.1-1.6,0.3-2.3c0.2-0.7,0.5-1.3,0.9-1.8s0.9-0.9,1.5-1.1C127.1,135.7,127.8,135.5,128.5,135.5
			L128.5,135.5z M131.3,141.1c0-0.8-0.1-1.5-0.3-2c-0.2-0.6-0.6-1-1-1.3s-0.9-0.4-1.5-0.4c-0.4,0-0.8,0.1-1.1,0.2
			c-0.3,0.2-0.6,0.4-0.9,0.7c-0.2,0.3-0.4,0.7-0.6,1.2c-0.1,0.5-0.2,1-0.2,1.6s0.1,1.2,0.2,1.7s0.3,0.9,0.6,1.2
			c0.3,0.3,0.5,0.6,0.9,0.7c0.3,0.2,0.7,0.2,1.1,0.2c0.5,0,1-0.1,1.4-0.4c0.4-0.3,0.8-0.7,1-1.3
			C131.2,142.6,131.3,141.9,131.3,141.1L131.3,141.1z"/>
		<path class="st7" d="M138.4,145.3v-8.5c0-0.4,0.1-0.8,0.3-1s0.4-0.3,0.7-0.3s0.5,0.1,0.7,0.3s0.3,0.5,0.3,1v8.5
			c0,0.4-0.1,0.8-0.3,1s-0.4,0.3-0.7,0.3s-0.5-0.1-0.7-0.3S138.4,145.8,138.4,145.3L138.4,145.3z"/>
		<path class="st7" d="M152.2,137.5h-2.1v7.8c0,0.5-0.1,0.8-0.3,1s-0.4,0.3-0.7,0.3s-0.5-0.1-0.7-0.3s-0.3-0.6-0.3-1v-7.8H146
			c-0.3,0-0.6-0.1-0.7-0.2c-0.2-0.2-0.2-0.4-0.2-0.7s0.1-0.5,0.2-0.7c0.2-0.2,0.4-0.2,0.7-0.2h6.2c0.3,0,0.6,0.1,0.8,0.3
			s0.2,0.4,0.2,0.6c0,0.3-0.1,0.5-0.2,0.7C152.8,137.4,152.6,137.5,152.2,137.5L152.2,137.5z"/>
		<path class="st7" d="M154.4,142v-5.2c0-0.4,0.1-0.8,0.3-1s0.4-0.3,0.7-0.3s0.5,0.1,0.7,0.3s0.3,0.6,0.3,1v5.3
			c0,0.6,0.1,1.1,0.2,1.5c0.1,0.4,0.3,0.7,0.6,0.9s0.7,0.3,1.3,0.3c0.8,0,1.3-0.2,1.6-0.7s0.5-1.1,0.5-2.1v-5.3c0-0.4,0.1-0.8,0.3-1
			s0.4-0.3,0.7-0.3s0.5,0.1,0.7,0.3s0.3,0.5,0.3,1v5.2c0,0.8-0.1,1.5-0.2,2.1c-0.1,0.6-0.4,1.1-0.8,1.5c-0.4,0.4-0.8,0.6-1.2,0.8
			c-0.5,0.2-1,0.2-1.6,0.2c-0.7,0-1.4-0.1-1.9-0.3s-1-0.5-1.3-0.8c-0.3-0.4-0.6-0.9-0.7-1.4C154.5,143.6,154.4,142.9,154.4,142
			L154.4,142z"/>
		<path class="st7" d="M168,144.9l-1.5-6.9v7.4c0,0.4-0.1,0.7-0.3,0.9s-0.4,0.3-0.7,0.3s-0.5-0.1-0.7-0.3s-0.3-0.5-0.3-0.9v-8.5
			c0-0.5,0.1-0.8,0.3-0.9c0.2-0.2,0.5-0.3,0.9-0.3h0.6c0.4,0,0.6,0,0.8,0.1s0.3,0.2,0.4,0.4c0.1,0.2,0.2,0.5,0.3,0.9l1.4,5.9
			l1.4-5.9c0.1-0.4,0.2-0.7,0.3-0.9s0.2-0.3,0.4-0.4c0.2-0.1,0.4-0.1,0.8-0.1h0.6c0.4,0,0.7,0.1,0.9,0.3s0.3,0.5,0.3,0.9v8.5
			c0,0.4-0.1,0.7-0.2,0.9c-0.2,0.2-0.4,0.3-0.7,0.3s-0.5-0.1-0.6-0.3c-0.2-0.2-0.3-0.5-0.3-0.9V138l-1.6,6.9c-0.1,0.4-0.2,0.8-0.3,1
			s-0.2,0.4-0.3,0.6c-0.2,0.2-0.4,0.3-0.7,0.3c-0.2,0-0.4-0.1-0.6-0.2c-0.2-0.1-0.3-0.2-0.4-0.4c-0.1-0.2-0.2-0.4-0.2-0.6
			C168.1,145.3,168,145.1,168,144.9L168,144.9z"/>
		<path class="st7" d="M180.2,135.5c1,0,1.9,0.2,2.6,0.7c0.7,0.4,1.3,1.1,1.6,1.9c0.4,0.8,0.6,1.8,0.6,2.9c0,0.8-0.1,1.6-0.3,2.3
			s-0.5,1.3-0.9,1.8s-0.9,0.9-1.5,1.1c-0.6,0.3-1.3,0.4-2,0.4c-0.8,0-1.4-0.1-2-0.4c-0.6-0.3-1.1-0.7-1.5-1.2s-0.7-1.1-0.9-1.8
			s-0.3-1.4-0.3-2.3c0-0.8,0.1-1.6,0.3-2.3s0.5-1.3,0.9-1.8s0.9-0.9,1.5-1.1C178.8,135.7,179.5,135.5,180.2,135.5L180.2,135.5z
			 M183,141.1c0-0.8-0.1-1.5-0.3-2c-0.2-0.6-0.6-1-1-1.3s-0.9-0.4-1.5-0.4c-0.4,0-0.8,0.1-1.1,0.2c-0.3,0.2-0.6,0.4-0.9,0.7
			c-0.2,0.3-0.4,0.7-0.6,1.2c-0.1,0.5-0.2,1-0.2,1.6s0.1,1.2,0.2,1.7c0.1,0.5,0.3,0.9,0.6,1.2s0.5,0.6,0.9,0.7
			c0.3,0.2,0.7,0.2,1.1,0.2c0.5,0,1-0.1,1.4-0.4c0.4-0.3,0.8-0.7,1-1.3C182.9,142.6,183,141.9,183,141.1L183,141.1z"/>
		<path class="st7" d="M189.3,141.9h-0.7v3.5c0,0.5-0.1,0.8-0.3,1s-0.4,0.3-0.7,0.3s-0.6-0.1-0.7-0.3c-0.2-0.2-0.3-0.6-0.3-1v-8.3
			c0-0.5,0.1-0.8,0.3-1s0.5-0.3,0.9-0.3h3.2c0.4,0,0.8,0,1.1,0.1c0.3,0,0.6,0.1,0.8,0.2c0.3,0.1,0.6,0.3,0.8,0.6s0.4,0.6,0.5,0.9
			c0.1,0.3,0.2,0.7,0.2,1.1c0,0.8-0.2,1.4-0.6,1.9c-0.4,0.5-1,0.8-1.9,1c0.3,0.2,0.7,0.5,1,0.9s0.6,0.8,0.8,1.3
			c0.3,0.5,0.4,0.9,0.6,1.2c0.1,0.4,0.2,0.6,0.2,0.7c0,0.1,0,0.3-0.1,0.4c-0.1,0.1-0.2,0.2-0.3,0.3s-0.3,0.1-0.5,0.1
			s-0.4-0.1-0.6-0.2c-0.1-0.1-0.3-0.3-0.4-0.4c-0.1-0.2-0.2-0.4-0.4-0.8l-0.8-1.4c-0.3-0.5-0.5-0.9-0.8-1.2
			c-0.2-0.3-0.4-0.5-0.7-0.6C190,141.9,189.7,141.9,189.3,141.9L189.3,141.9z M190.4,137.4h-1.8v3h1.8c0.5,0,0.9,0,1.2-0.1
			s0.6-0.2,0.7-0.5c0.2-0.2,0.3-0.5,0.3-0.9c0-0.3-0.1-0.6-0.2-0.8c-0.1-0.2-0.3-0.4-0.6-0.5C191.6,137.4,191.1,137.4,190.4,137.4
			L190.4,137.4z"/>
		<path class="st7" d="M196.5,145.3v-8.5c0-0.4,0.1-0.8,0.3-1s0.4-0.3,0.7-0.3s0.5,0.1,0.7,0.3s0.3,0.5,0.3,1v8.5
			c0,0.4-0.1,0.8-0.3,1s-0.4,0.3-0.7,0.3s-0.5-0.1-0.7-0.3S196.5,145.8,196.5,145.3L196.5,145.3z"/>
		<path class="st7" d="M36.3,121.8v7.8h4c0.3,0,0.6,0.1,0.7,0.3c0.2,0.2,0.3,0.4,0.3,0.6s-0.1,0.5-0.2,0.6c-0.2,0.2-0.4,0.2-0.7,0.2
			h-4.7c-0.4,0-0.7-0.1-0.9-0.3s-0.3-0.6-0.3-1v-8.3c0-0.4,0.1-0.8,0.3-1s0.4-0.3,0.7-0.3s0.5,0.1,0.7,0.3
			C36.2,121,36.3,121.4,36.3,121.8L36.3,121.8z"/>
		<path class="st7" d="M48.9,122.4h-4.4v2.6h4.1c0.3,0,0.5,0.1,0.7,0.2c0.1,0.1,0.2,0.3,0.2,0.6c0,0.2-0.1,0.4-0.2,0.6
			c-0.1,0.2-0.4,0.2-0.7,0.2h-4.1v3.1H49c0.3,0,0.5,0.1,0.7,0.2c0.2,0.2,0.2,0.4,0.2,0.6c0,0.3-0.1,0.5-0.2,0.6
			c-0.2,0.2-0.4,0.2-0.7,0.2h-5.3c-0.4,0-0.7-0.1-0.9-0.3s-0.3-0.6-0.3-1v-8c0-0.3,0-0.6,0.1-0.8c0.1-0.2,0.2-0.3,0.4-0.4
			s0.4-0.1,0.7-0.1h5.2c0.3,0,0.5,0.1,0.7,0.2c0.2,0.2,0.2,0.4,0.2,0.6c0,0.3-0.1,0.5-0.2,0.6C49.4,122.3,49.2,122.4,48.9,122.4
			L48.9,122.4z"/>
		<path class="st7" d="M60.4,127.1v2.1c0,0.3,0,0.5-0.1,0.7s-0.1,0.3-0.3,0.4c-0.1,0.1-0.3,0.3-0.5,0.4c-0.6,0.4-1.2,0.6-1.7,0.8
			s-1.1,0.2-1.8,0.2s-1.4-0.1-2-0.4c-0.6-0.3-1.1-0.6-1.6-1.1c-0.4-0.5-0.8-1.1-1-1.8s-0.3-1.5-0.3-2.3s0.1-1.6,0.3-2.3
			c0.2-0.7,0.6-1.3,1-1.8s1-0.9,1.6-1.1c0.6-0.3,1.3-0.4,2.1-0.4c0.7,0,1.2,0.1,1.7,0.3c0.5,0.2,0.9,0.4,1.2,0.7
			c0.3,0.3,0.5,0.6,0.7,0.9s0.2,0.6,0.2,0.9s-0.1,0.5-0.3,0.7s-0.4,0.3-0.7,0.3c-0.1,0-0.3,0-0.4-0.1c-0.1-0.1-0.2-0.2-0.3-0.3
			c-0.2-0.4-0.4-0.7-0.6-1c-0.2-0.2-0.4-0.4-0.7-0.5s-0.6-0.2-1.1-0.2s-0.9,0.1-1.2,0.3c-0.4,0.2-0.7,0.4-0.9,0.8
			c-0.3,0.3-0.5,0.7-0.6,1.2s-0.2,1-0.2,1.6c0,1.3,0.3,2.2,0.8,2.9s1.2,1,2.2,1c0.5,0,0.9-0.1,1.3-0.2c0.4-0.1,0.8-0.3,1.2-0.6v-1.7
			h-1.5c-0.4,0-0.6-0.1-0.8-0.2s-0.3-0.3-0.3-0.6c0-0.2,0.1-0.4,0.2-0.6c0.2-0.2,0.4-0.2,0.6-0.2h2.2c0.3,0,0.5,0,0.7,0.1
			s0.3,0.2,0.5,0.4C60.3,126.4,60.4,126.7,60.4,127.1L60.4,127.1z"/>
		<path class="st7" d="M68.4,130.2l-0.5-1.4H64l-0.5,1.4c-0.2,0.5-0.3,0.9-0.5,1.1c-0.1,0.2-0.3,0.3-0.6,0.3c-0.2,0-0.5-0.1-0.7-0.3
			s-0.3-0.4-0.3-0.7c0-0.1,0-0.3,0.1-0.5c0-0.2,0.1-0.4,0.2-0.6l2.5-7c0.1-0.2,0.2-0.4,0.2-0.7c0.1-0.3,0.2-0.5,0.3-0.7
			c0.1-0.2,0.3-0.3,0.4-0.4c0.2-0.1,0.4-0.2,0.7-0.2c0.3,0,0.5,0.1,0.7,0.2s0.3,0.3,0.4,0.4c0.1,0.2,0.2,0.4,0.3,0.6
			c0.1,0.2,0.2,0.5,0.3,0.8l2.5,6.9c0.2,0.5,0.3,0.9,0.3,1.2c0,0.2-0.1,0.5-0.3,0.7c-0.2,0.2-0.4,0.3-0.7,0.3c-0.2,0-0.3,0-0.4-0.1
			s-0.2-0.1-0.3-0.2c-0.1-0.1-0.2-0.3-0.2-0.5C68.6,130.6,68.5,130.4,68.4,130.2L68.4,130.2z M64.6,127.2h2.9l-1.5-4.4L64.6,127.2
			L64.6,127.2z"/>
		<path class="st7" d="M75.4,130.3v-8.5c0-0.4,0.1-0.8,0.3-1c0.2-0.2,0.4-0.3,0.7-0.3c0.3,0,0.5,0.1,0.7,0.3c0.2,0.2,0.3,0.5,0.3,1
			v8.5c0,0.4-0.1,0.8-0.3,1c-0.2,0.2-0.4,0.3-0.7,0.3c-0.3,0-0.5-0.1-0.7-0.3C75.5,131.1,75.4,130.7,75.4,130.3L75.4,130.3z"/>
		<path class="st7" d="M85.9,122.5h-2.1v7.8c0,0.5-0.1,0.8-0.3,1c-0.2,0.2-0.4,0.3-0.7,0.3c-0.3,0-0.5-0.1-0.7-0.3s-0.3-0.5-0.3-1
			v-7.8h-2.1c-0.3,0-0.6-0.1-0.7-0.2c-0.2-0.2-0.2-0.4-0.2-0.6c0-0.3,0.1-0.5,0.2-0.7c0.2-0.2,0.4-0.2,0.7-0.2h6.2
			c0.3,0,0.6,0.1,0.8,0.2c0.2,0.2,0.3,0.4,0.3,0.7c0,0.3-0.1,0.5-0.3,0.6S86.2,122.5,85.9,122.5L85.9,122.5z"/>
		<path class="st7" d="M94.3,130.2l-0.5-1.4h-3.9l-0.5,1.4c-0.2,0.5-0.3,0.9-0.5,1.1c-0.1,0.2-0.3,0.3-0.6,0.3
			c-0.2,0-0.5-0.1-0.7-0.3s-0.3-0.4-0.3-0.7c0-0.1,0-0.3,0.1-0.5c0-0.2,0.1-0.4,0.2-0.6l2.5-7c0.1-0.2,0.2-0.4,0.3-0.7
			c0.1-0.3,0.2-0.5,0.3-0.7c0.1-0.2,0.3-0.3,0.4-0.4c0.2-0.1,0.4-0.2,0.7-0.2c0.3,0,0.5,0.1,0.7,0.2s0.3,0.3,0.4,0.4
			c0.1,0.2,0.2,0.4,0.3,0.6c0.1,0.2,0.2,0.5,0.3,0.8l2.5,6.9c0.2,0.5,0.3,0.9,0.3,1.2c0,0.2-0.1,0.5-0.3,0.7
			c-0.2,0.2-0.4,0.3-0.7,0.3c-0.2,0-0.3,0-0.4-0.1s-0.2-0.1-0.3-0.2c-0.1-0.1-0.2-0.3-0.2-0.5C94.4,130.6,94.3,130.4,94.3,130.2
			L94.3,130.2z M90.4,127.2h2.9l-1.5-4.4L90.4,127.2L90.4,127.2z"/>
		<path class="st7" d="M99.7,121.8v7.8h4c0.3,0,0.6,0.1,0.7,0.3c0.2,0.2,0.3,0.4,0.3,0.6s-0.1,0.5-0.3,0.6c-0.2,0.2-0.4,0.2-0.7,0.2
			H99c-0.4,0-0.7-0.1-0.9-0.3c-0.2-0.2-0.3-0.6-0.3-1v-8.3c0-0.4,0.1-0.8,0.3-1c0.2-0.2,0.4-0.3,0.7-0.3c0.3,0,0.5,0.1,0.7,0.3
			C99.6,121,99.7,121.4,99.7,121.8L99.7,121.8z"/>
		<path class="st7" d="M106.1,130.3v-8.5c0-0.4,0.1-0.8,0.3-1c0.2-0.2,0.4-0.3,0.7-0.3c0.3,0,0.5,0.1,0.7,0.3c0.2,0.2,0.3,0.5,0.3,1
			v8.5c0,0.4-0.1,0.8-0.3,1c-0.2,0.2-0.4,0.3-0.7,0.3c-0.3,0-0.5-0.1-0.7-0.3C106.1,131.1,106.1,130.7,106.1,130.3L106.1,130.3z"/>
		<path class="st7" d="M116.4,130.2l-0.5-1.4H112l-0.5,1.4c-0.2,0.5-0.3,0.9-0.5,1.1c-0.1,0.2-0.3,0.3-0.6,0.3
			c-0.2,0-0.5-0.1-0.7-0.3s-0.3-0.4-0.3-0.7c0-0.1,0-0.3,0.1-0.5c0-0.2,0.1-0.4,0.2-0.6l2.5-7c0.1-0.2,0.2-0.4,0.3-0.7
			c0.1-0.3,0.2-0.5,0.3-0.7c0.1-0.2,0.3-0.3,0.4-0.4c0.2-0.1,0.4-0.2,0.7-0.2c0.3,0,0.5,0.1,0.7,0.2s0.3,0.3,0.4,0.4
			c0.1,0.2,0.2,0.4,0.3,0.6c0.1,0.2,0.2,0.5,0.3,0.8l2.5,6.9c0.2,0.5,0.3,0.9,0.3,1.2c0,0.2-0.1,0.5-0.3,0.7
			c-0.2,0.2-0.4,0.3-0.7,0.3c-0.2,0-0.3,0-0.4-0.1s-0.2-0.1-0.3-0.2c-0.1-0.1-0.2-0.3-0.2-0.5C116.5,130.6,116.5,130.4,116.4,130.2
			L116.4,130.2z M112.5,127.2h2.9l-1.5-4.4L112.5,127.2L112.5,127.2z"/>
		<path class="st7" d="M122.5,121.8l3.8,6.3v-6.4c0-0.4,0.1-0.7,0.2-0.9c0.2-0.2,0.4-0.3,0.7-0.3c0.3,0,0.5,0.1,0.7,0.3
			c0.2,0.2,0.2,0.5,0.2,0.9v8.5c0,0.9-0.4,1.4-1.1,1.4c-0.2,0-0.3,0-0.5-0.1c-0.1-0.1-0.3-0.1-0.4-0.3c-0.1-0.1-0.2-0.3-0.3-0.4
			c-0.1-0.2-0.2-0.3-0.3-0.5l-3.7-6.3v6.3c0,0.4-0.1,0.7-0.3,0.9c-0.2,0.2-0.4,0.3-0.7,0.3c-0.3,0-0.5-0.1-0.7-0.3s-0.3-0.5-0.3-0.9
			V122c0-0.3,0-0.6,0.1-0.8c0.1-0.2,0.2-0.4,0.4-0.5c0.2-0.1,0.4-0.2,0.6-0.2s0.3,0,0.4,0.1s0.2,0.1,0.3,0.3
			c0.1,0.1,0.2,0.2,0.3,0.4C122.3,121.4,122.4,121.6,122.5,121.8L122.5,121.8z"/>
		<path class="st7" d="M136.4,130.2l-0.5-1.4H132l-0.5,1.4c-0.2,0.5-0.3,0.9-0.5,1.1c-0.1,0.2-0.3,0.3-0.6,0.3
			c-0.2,0-0.5-0.1-0.7-0.3s-0.3-0.4-0.3-0.7c0-0.1,0-0.3,0.1-0.5c0-0.2,0.1-0.4,0.2-0.6l2.5-7c0.1-0.2,0.2-0.4,0.3-0.7
			c0.1-0.3,0.2-0.5,0.3-0.7s0.3-0.3,0.4-0.4c0.2-0.1,0.4-0.2,0.7-0.2s0.5,0.1,0.7,0.2s0.3,0.3,0.4,0.4c0.1,0.2,0.2,0.4,0.3,0.6
			s0.2,0.5,0.3,0.8l2.5,6.9c0.2,0.5,0.3,0.9,0.3,1.2c0,0.2-0.1,0.5-0.3,0.7s-0.4,0.3-0.7,0.3c-0.2,0-0.3,0-0.4-0.1
			c-0.1-0.1-0.2-0.1-0.3-0.2c-0.1-0.1-0.2-0.3-0.2-0.5C136.6,130.6,136.5,130.4,136.4,130.2L136.4,130.2z M132.5,127.2h2.9l-1.5-4.4
			L132.5,127.2L132.5,127.2z"/>
		<path class="st7" d="M147.1,127.3h-1.8v3c0,0.4-0.1,0.8-0.3,1s-0.4,0.3-0.7,0.3s-0.5-0.1-0.7-0.3s-0.3-0.5-0.3-1V122
			c0-0.5,0.1-0.8,0.3-1s0.5-0.3,0.9-0.3h2.5c0.7,0,1.3,0.1,1.7,0.2s0.7,0.3,1,0.6c0.3,0.3,0.5,0.6,0.7,1c0.1,0.4,0.2,0.9,0.2,1.4
			c0,1.1-0.3,1.9-0.9,2.5C149.2,127,148.3,127.3,147.1,127.3L147.1,127.3z M146.6,122.3h-1.3v3.3h1.3c0.5,0,0.8-0.1,1.2-0.2
			c0.3-0.1,0.6-0.3,0.7-0.5c0.2-0.2,0.2-0.6,0.2-1c0-0.5-0.1-0.9-0.4-1.2C148.1,122.5,147.5,122.3,146.6,122.3L146.6,122.3z"/>
		<path class="st7" d="M158.8,122.4h-4.4v2.6h4.1c0.3,0,0.5,0.1,0.7,0.2s0.2,0.3,0.2,0.6c0,0.2-0.1,0.4-0.2,0.6
			c-0.1,0.2-0.4,0.2-0.7,0.2h-4.1v3.1h4.6c0.3,0,0.5,0.1,0.7,0.2c0.2,0.2,0.2,0.4,0.2,0.6c0,0.3-0.1,0.5-0.2,0.6
			c-0.2,0.2-0.4,0.2-0.7,0.2h-5.3c-0.4,0-0.7-0.1-0.9-0.3s-0.3-0.6-0.3-1v-8c0-0.3,0-0.6,0.1-0.8c0.1-0.2,0.2-0.3,0.4-0.4
			s0.4-0.1,0.7-0.1h5.2c0.3,0,0.5,0.1,0.7,0.2c0.2,0.2,0.2,0.4,0.2,0.6c0,0.3-0.1,0.5-0.2,0.6C159.3,122.3,159.1,122.4,158.8,122.4
			L158.8,122.4z"/>
		<path class="st7" d="M164,126.9h-0.7v3.5c0,0.5-0.1,0.8-0.3,1s-0.4,0.3-0.7,0.3s-0.6-0.1-0.7-0.3c-0.2-0.2-0.3-0.6-0.3-1V122
			c0-0.5,0.1-0.8,0.3-1s0.5-0.3,0.9-0.3h3.2c0.4,0,0.8,0,1.1,0.1c0.3,0,0.6,0.1,0.8,0.3c0.3,0.1,0.6,0.3,0.8,0.6
			c0.2,0.3,0.4,0.6,0.5,0.9s0.2,0.7,0.2,1.1c0,0.8-0.2,1.4-0.6,1.9c-0.4,0.5-1,0.8-1.9,1c0.3,0.2,0.7,0.5,1,0.9s0.6,0.8,0.8,1.3
			c0.3,0.4,0.4,0.9,0.6,1.2c0.1,0.4,0.2,0.6,0.2,0.7c0,0.1,0,0.3-0.1,0.4c-0.1,0.1-0.2,0.2-0.3,0.3s-0.3,0.1-0.5,0.1
			s-0.4-0.1-0.6-0.2c-0.2-0.1-0.3-0.3-0.4-0.4c-0.1-0.2-0.2-0.4-0.4-0.8l-0.8-1.4c-0.3-0.5-0.5-0.9-0.8-1.2
			c-0.2-0.3-0.4-0.5-0.7-0.6C164.7,126.9,164.4,126.9,164,126.9L164,126.9z M165.2,122.3h-1.8v3h1.8c0.5,0,0.9,0,1.2-0.1
			s0.6-0.2,0.7-0.5c0.2-0.2,0.3-0.5,0.3-0.9c0-0.3-0.1-0.6-0.2-0.8c-0.1-0.2-0.3-0.4-0.6-0.5C166.3,122.4,165.8,122.3,165.2,122.3
			L165.2,122.3z"/>
		<path class="st7" d="M176.4,121.8v7.8h4c0.3,0,0.6,0.1,0.7,0.3c0.2,0.2,0.3,0.4,0.3,0.6s-0.1,0.5-0.3,0.6
			c-0.2,0.2-0.4,0.2-0.7,0.2h-4.7c-0.4,0-0.7-0.1-0.9-0.3s-0.3-0.6-0.3-1v-8.3c0-0.4,0.1-0.8,0.3-1s0.4-0.3,0.7-0.3s0.5,0.1,0.7,0.3
			C176.3,121,176.4,121.4,176.4,121.8L176.4,121.8z"/>
		<path class="st7" d="M188.9,130.2l-0.5-1.4h-3.9l-0.5,1.4c-0.2,0.5-0.3,0.9-0.5,1.1c-0.1,0.2-0.3,0.3-0.6,0.3
			c-0.2,0-0.5-0.1-0.7-0.3s-0.3-0.4-0.3-0.7c0-0.1,0-0.3,0.1-0.5c0-0.2,0.1-0.4,0.2-0.6l2.5-7c0.1-0.2,0.2-0.4,0.3-0.7
			c0.1-0.3,0.2-0.5,0.3-0.7s0.3-0.3,0.4-0.4c0.2-0.1,0.4-0.2,0.7-0.2s0.5,0.1,0.7,0.2s0.3,0.3,0.4,0.4c0.1,0.2,0.2,0.4,0.3,0.6
			s0.2,0.5,0.3,0.8l2.5,6.9c0.2,0.5,0.3,0.9,0.3,1.2c0,0.2-0.1,0.5-0.3,0.7s-0.4,0.3-0.7,0.3c-0.2,0-0.3,0-0.4-0.1
			c-0.1-0.1-0.2-0.1-0.3-0.2c-0.1-0.1-0.2-0.3-0.2-0.5S188.9,130.4,188.9,130.2L188.9,130.2z M185,127.2h2.9l-1.5-4.4L185,127.2
			L185,127.2z"/>
		<path class="st7" d="M197.7,121.8v7.8h4c0.3,0,0.6,0.1,0.7,0.3c0.2,0.2,0.3,0.4,0.3,0.6s-0.1,0.5-0.2,0.6
			c-0.2,0.2-0.4,0.2-0.7,0.2H197c-0.4,0-0.7-0.1-0.9-0.3s-0.3-0.6-0.3-1v-8.3c0-0.4,0.1-0.8,0.3-1s0.4-0.3,0.7-0.3s0.5,0.1,0.7,0.3
			C197.6,121,197.7,121.4,197.7,121.8L197.7,121.8z"/>
		<path class="st7" d="M208.2,120.5c1,0,1.9,0.2,2.6,0.7c0.7,0.4,1.3,1.1,1.6,1.9c0.4,0.8,0.6,1.8,0.6,2.9c0,0.8-0.1,1.6-0.3,2.3
			c-0.2,0.7-0.5,1.3-0.9,1.8s-0.9,0.9-1.5,1.1c-0.6,0.3-1.3,0.4-2,0.4c-0.8,0-1.4-0.1-2-0.4c-0.6-0.3-1.1-0.7-1.5-1.2
			s-0.7-1.1-0.9-1.8s-0.3-1.4-0.3-2.3c0-0.8,0.1-1.6,0.3-2.3c0.2-0.7,0.5-1.3,0.9-1.8s0.9-0.9,1.5-1.1
			C206.8,120.6,207.5,120.5,208.2,120.5L208.2,120.5z M211,126c0-0.8-0.1-1.5-0.3-2.1s-0.6-1-1-1.3s-0.9-0.4-1.5-0.4
			c-0.4,0-0.8,0.1-1.1,0.2c-0.3,0.2-0.6,0.4-0.9,0.7c-0.2,0.3-0.4,0.7-0.6,1.2c-0.1,0.5-0.2,1-0.2,1.6s0.1,1.2,0.2,1.7
			c0.1,0.5,0.3,0.9,0.6,1.2s0.5,0.6,0.9,0.7c0.3,0.2,0.7,0.2,1.1,0.2c0.5,0,1-0.1,1.4-0.4c0.4-0.3,0.8-0.7,1-1.3
			C210.9,127.6,211,126.9,211,126L211,126z"/>
		<path class="st7" d="M221,122.5h-2.1v7.8c0,0.5-0.1,0.8-0.3,1s-0.4,0.3-0.7,0.3s-0.5-0.1-0.7-0.3s-0.3-0.5-0.3-1v-7.8h-2.1
			c-0.3,0-0.6-0.1-0.7-0.2c-0.2-0.2-0.2-0.4-0.2-0.6c0-0.3,0.1-0.5,0.2-0.7c0.2-0.2,0.4-0.2,0.7-0.2h6.2c0.3,0,0.6,0.1,0.8,0.2
			c0.2,0.2,0.3,0.4,0.3,0.7c0,0.3-0.1,0.5-0.3,0.6C221.6,122.4,221.3,122.5,221,122.5L221,122.5z"/>
		<path class="st7" d="M229.4,122.5h-2.1v7.8c0,0.5-0.1,0.8-0.3,1s-0.4,0.3-0.7,0.3s-0.5-0.1-0.7-0.3s-0.3-0.5-0.3-1v-7.8h-2.1
			c-0.3,0-0.6-0.1-0.7-0.2c-0.2-0.2-0.2-0.4-0.2-0.6c0-0.3,0.1-0.5,0.2-0.7c0.2-0.2,0.4-0.2,0.7-0.2h6.2c0.3,0,0.6,0.1,0.8,0.2
			c0.2,0.2,0.3,0.4,0.3,0.7c0,0.3-0.1,0.5-0.3,0.6C230,122.4,229.8,122.5,229.4,122.5L229.4,122.5z"/>
		<path class="st7" d="M237.8,130.2l-0.5-1.4h-3.9l-0.5,1.4c-0.2,0.5-0.3,0.9-0.5,1.1c-0.1,0.2-0.3,0.3-0.6,0.3
			c-0.2,0-0.5-0.1-0.7-0.3s-0.3-0.4-0.3-0.7c0-0.1,0-0.3,0.1-0.5c0-0.2,0.1-0.4,0.2-0.6l2.5-7c0.1-0.2,0.2-0.4,0.2-0.7
			c0.1-0.3,0.2-0.5,0.3-0.7s0.3-0.3,0.4-0.4c0.2-0.1,0.4-0.2,0.7-0.2s0.5,0.1,0.7,0.2s0.3,0.3,0.4,0.4c0.1,0.2,0.2,0.4,0.3,0.6
			s0.2,0.5,0.3,0.8l2.5,6.9c0.2,0.5,0.3,0.9,0.3,1.2c0,0.2-0.1,0.5-0.3,0.7s-0.4,0.3-0.7,0.3c-0.2,0-0.3,0-0.4-0.1
			c-0.1-0.1-0.2-0.1-0.3-0.2c-0.1-0.1-0.2-0.3-0.2-0.5C238,130.6,237.9,130.4,237.8,130.2L237.8,130.2z M233.9,127.2h2.9l-1.5-4.4
			L233.9,127.2L233.9,127.2z"/>
		<path class="st2" d="M66.1,64c-2.3-6.2,0.9-13.1,7.1-15.3c6.2-2.3,13.1,0.9,15.3,7.2c2.3,6.2-0.9,13.1-7.1,15.3
			C75.3,73.4,68.4,70.2,66.1,64L66.1,64z"/>
		<path class="st2" d="M70.5,85.3c-11.3,4.1-23.8-1.7-27.9-13L24,21.2c-1.6-4.5,0.7-9.5,5.2-11.2l4.1-1.5c4.5-1.6,9.5,0.7,11.2,5.2
			L63,64.9c3.1,8.5,12.5,12.8,20.9,9.8l38.3-14c1.4-0.5,3,0.2,3.5,1.6c0.5,1.4-0.2,3-1.6,3.5L70.5,85.3L70.5,85.3z"/>
		<path class="st3" d="M54.8,102.6c-11.3,4.1-23.8-1.7-27.9-13L9.2,41c-1.1-3.1,0.5-6.5,3.6-7.7l3.1-1.1c3.1-1.1,6.5,0.5,7.7,3.6
			l16.6,45.5C43.8,91.5,55,96.7,65.2,93l22-8c1.4-0.5,3,0.2,3.5,1.6s-0.2,3-1.6,3.5L54.8,102.6L54.8,102.6z"/>
		<path class="st7" d="M231.4,69.8c0-2.2-1.7-3.9-3.9-3.9h-7.3c-1.9,0-3.4-1.5-3.4-3.3c0-1.9,1.5-3.4,3.4-3.4h30.2
			c1.8,0,3.4,1.5,3.4,3.4c0,1.9-1.5,3.3-3.4,3.3h-7.3c-2.2,0-3.9,1.8-3.9,3.9V100c0,2.2-1.7,3.9-3.9,3.9s-3.9-1.8-3.9-3.9
			L231.4,69.8L231.4,69.8z M202.5,97.2h16.2c1.9,0,3.4,1.5,3.4,3.4c0,1.8-1.5,3.4-3.4,3.4h-24c-2.2,0-3.9-1.8-3.9-3.9v-37
			c0-2.2,1.8-3.9,3.9-3.9c2.2,0,3.9,1.7,3.9,3.9v30.2C198.6,95.5,200.4,97.2,202.5,97.2L202.5,97.2z M146.3,97.2h16.2
			c1.9,0,3.4,1.5,3.4,3.4c0,1.8-1.5,3.4-3.4,3.4h-24c-2.2,0-3.9-1.8-3.9-3.9v-37c0-2.2,1.8-3.9,3.9-3.9c2.2,0,3.9,1.7,3.9,3.9v30.2
			C142.3,95.5,144.1,97.2,146.3,97.2L146.3,97.2z M176.5,59.2c2.2,0,3.9,1.7,3.9,3.9V100c0,2.2-1.8,3.9-3.9,3.9
			c-2.2,0-3.9-1.8-3.9-3.9V63.1C172.6,61,174.4,59.2,176.5,59.2L176.5,59.2z"/>
		<path class="st8" d="M213.3,155.5c0,0.4-0.2,0.9-0.7,1.4s-1.1,0.8-2,0.8c-0.4,0-1,0.1-1.6,0.1s-1.2,0-1.8-0.2
			c-0.3,0.4-0.3,0.5-0.3,0.6c0,0.5,0,1,0.1,1.5s0.5,0.9,1.1,1.1l1,0.4c0.5,0.2,0.9,0.3,1.2,0.3c0.4,0,0.6,0.1,0.6,0.1s0.1,0,0.3,0
			c0.1,0,0.3,0,0.5-0.1c0.2,0,0.4,0,0.4,0.2c0,0.3-0.1,0.6-0.3,0.7c-0.2,0.2-0.5,0.3-0.7,0.5c-0.2,0.1-0.4,0.2-0.5,0.1
			c-0.1,0-0.4,0-0.9,0.1c-0.1,0-0.3,0-0.5-0.1c-0.2,0-0.5-0.1-0.9,0c-0.7,0.1-1.2,0-1.6-0.3c-0.4-0.3-0.6-0.5-0.8-0.7
			c-0.2-0.3-0.5-0.5-1-0.9c-0.4-0.3-0.7-0.6-0.8-0.8c-0.1-0.4-0.2-0.7-0.2-0.9v-1.1c0-0.3,0.2-0.7,0.5-1.1c0.3-0.5,0.5-0.8,0.6-1
			c0.2-0.3,0.3-0.7,0.4-1.1c0.1-0.4,0.2-0.7,0.2-0.8c0.2-0.4,0.5-0.6,0.7-0.9c0.2-0.2,0.5-0.5,0.9-0.6c0.1-0.1,0.3-0.1,0.7-0.2
			c0.4-0.1,0.6-0.1,0.8-0.1c0.5-0.1,1,0,1.4,0.1s0.8,0.3,1.1,0.5c0.2,0.2,0.4,0.4,0.6,0.6c0.2,0.3,0.4,0.5,0.5,0.7
			c0.3,0.3,0.4,0.5,0.5,0.6C213.2,155.3,213.3,155.4,213.3,155.5L213.3,155.5z M211.1,155.2c0-0.2-0.1-0.3-0.2-0.4
			c-0.1-0.1-0.4-0.1-1,0c-0.4,0-0.9,0.3-1.4,0.7s-0.9,0.7-1,1c0.1,0.3,0.2,0.3,0.4,0.4c0.4,0.1,0.7,0.2,0.8,0.2s0.3,0,0.6,0
			c0.5,0,0.8-0.1,1-0.2c0.2-0.1,0.3-0.2,0.4-0.4c0.1-0.1,0.2-0.3,0.3-0.5C211.1,155.6,211.1,155.4,211.1,155.2L211.1,155.2z
			 M276.8,150c0-0.2-0.1-0.3-0.2-0.4c-0.1-0.1-0.4-0.1-1,0c-0.4,0-0.9,0.3-1.4,0.7s-0.9,0.7-1,1c0.1,0.3,0.2,0.3,0.4,0.4
			c0.4,0.1,0.7,0.2,0.8,0.2c0.1,0,0.3,0,0.6,0c0.5,0,0.8-0.1,1-0.2c0.2-0.1,0.3-0.2,0.4-0.4c0.1-0.1,0.2-0.3,0.3-0.5
			C276.8,150.4,276.8,150.2,276.8,150L276.8,150z M279,150.3c0,0.4-0.2,0.9-0.7,1.4s-1.1,0.8-2,0.8c-0.4,0-1,0.1-1.6,0.1
			s-1.2,0-1.8-0.2c-0.3,0.4-0.3,0.5-0.3,0.6c0,0.5,0,1,0.1,1.5s0.5,0.9,1.1,1.1l1,0.4c0.5,0.2,0.9,0.3,1.2,0.3
			c0.4,0,0.6,0.1,0.6,0.1s0.1,0.1,0.3,0c0.1,0,0.3,0,0.6-0.1c0.2,0,0.4,0,0.4,0.2c0,0.3-0.1,0.6-0.3,0.7c-0.2,0.2-0.5,0.3-0.7,0.5
			c-0.2,0.1-0.4,0.2-0.5,0.1c-0.1,0-0.4,0-0.9,0.1c-0.1,0-0.3,0-0.5-0.1c-0.2,0-0.5-0.1-0.9,0c-0.7,0.1-1.2,0-1.6-0.3
			s-0.6-0.5-0.8-0.7c-0.2-0.3-0.5-0.5-1-0.9c-0.4-0.3-0.7-0.6-0.8-0.8c-0.1-0.4-0.2-0.7-0.2-0.9v-1.1c0-0.3,0.2-0.6,0.5-1.1
			s0.5-0.8,0.6-1c0.2-0.3,0.3-0.7,0.4-1.1c0.1-0.4,0.2-0.7,0.2-0.8c0.2-0.4,0.5-0.6,0.7-0.9c0.2-0.2,0.5-0.5,0.9-0.6
			c0.1-0.1,0.3-0.1,0.7-0.2c0.4-0.1,0.7-0.1,0.8-0.1c0.5,0,1,0,1.5,0.1c0.4,0.1,0.8,0.3,1.1,0.5c0.2,0.1,0.4,0.4,0.6,0.6
			c0.2,0.3,0.4,0.5,0.5,0.7c0.3,0.3,0.4,0.5,0.5,0.6C278.9,150,279,150.2,279,150.3L279,150.3z M268.3,148.2c0,0.3-0.1,0.6-0.2,1
			l-0.2,1c0,0.2-0.1,0.3-0.2,0.4c-0.1,0.1-0.2,0.2-0.4,0.4l-0.4,0.4c-0.1,0.1-0.3,0.3-0.6,0.4c-0.3,0.1-0.6,0.3-0.9,0.3
			c-0.3,0.1-0.6,0.2-0.9,0.4c-0.2,0.1-0.3,0.2-0.4,0.4s-0.1,0.4-0.2,0.7c0,0.3,0,0.5,0,0.8s0,0.6,0,1s0,0.7,0,0.9v0.8
			c0,0.2-0.1,0.4-0.2,0.6c-0.1,0.2-0.2,0.3-0.3,0.3c-0.2-0.1-0.2-0.2-0.3-0.4c-0.1-0.2-0.4-0.5-0.8-0.9s-0.7-0.7-0.7-0.9v-0.9
			c0-0.5,0-1.1,0-1.7v-2.1c0-0.4,0.1-0.7,0.1-1c0.1-0.2,0.2-0.5,0.4-0.7c0.2-0.3,0.4-0.5,0.5-0.7c0.1-0.1,0.2-0.2,0.4-0.3
			c0.2-0.1,0.3-0.1,0.4,0c0.2,0.2,0.2,0.3,0.2,0.4v0.8c0,0.2,0,0.5,0.1,0.7c0.2,0.1,0.2,0,0.3-0.1c0.2-0.2,0.4-0.4,0.6-0.6l0.6-0.5
			c0.3-0.3,0.6-0.5,0.9-0.7s0.7-0.3,1.1-0.4c0.2,0,0.4,0,0.6,0C268.3,147.9,268.3,148,268.3,148.2L268.3,148.2z M257.5,151.7
			c0-0.2-0.1-0.3-0.2-0.4c-0.1-0.1-0.4-0.1-1,0c-0.4,0-0.9,0.3-1.4,0.7s-0.9,0.7-1,1c0.1,0.3,0.2,0.3,0.4,0.4
			c0.4,0.1,0.7,0.2,0.8,0.2s0.3,0,0.6,0c0.5,0,0.8-0.1,1-0.2c0.2-0.1,0.3-0.2,0.4-0.4c0.1-0.1,0.2-0.3,0.3-0.5
			C257.4,152.1,257.5,151.9,257.5,151.7L257.5,151.7z M259.6,152c0,0.4-0.2,0.9-0.7,1.4s-1.1,0.8-2,0.8c-0.4,0-1,0.1-1.6,0.1
			s-1.2,0-1.8-0.2c-0.3,0.4-0.3,0.5-0.3,0.6c0,0.5,0,1,0.1,1.5s0.5,0.9,1.1,1.1l1,0.4c0.5,0.2,0.9,0.3,1.2,0.3
			c0.4,0,0.6,0.1,0.6,0.1c0,0.1,0.1,0.1,0.3,0c0.1,0,0.3,0,0.5-0.1c0.2,0,0.4,0,0.4,0.2c0,0.3-0.1,0.6-0.3,0.7
			c-0.2,0.2-0.5,0.3-0.7,0.5c-0.2,0.1-0.4,0.2-0.5,0.1c-0.1,0-0.4,0-0.9,0.1c-0.1,0-0.3,0-0.5-0.1s-0.5-0.1-0.9,0
			c-0.7,0.1-1.2,0-1.6-0.3c-0.4-0.3-0.6-0.5-0.8-0.7c-0.2-0.3-0.5-0.5-1-0.9c-0.4-0.3-0.7-0.6-0.8-0.8c-0.1-0.4-0.2-0.7-0.2-0.9
			v-1.1c0-0.3,0.2-0.6,0.5-1.1s0.5-0.8,0.6-1c0.2-0.3,0.3-0.7,0.4-1.1c0.1-0.4,0.2-0.7,0.2-0.8c0.2-0.4,0.5-0.6,0.7-0.9
			c0.2-0.2,0.5-0.5,0.9-0.6c0.1,0,0.3-0.1,0.7-0.2c0.4-0.1,0.6-0.1,0.8-0.1c0.5-0.1,1,0,1.4,0.1c0.4,0.1,0.8,0.3,1.1,0.5
			c0.2,0.1,0.4,0.4,0.6,0.6c0.2,0.3,0.4,0.5,0.5,0.7c0.3,0.3,0.4,0.5,0.5,0.6C259.6,151.8,259.6,151.9,259.6,152L259.6,152z
			 M249,148.8c0,0.3-0.1,0.6-0.2,1.1c-0.1,0.4-0.2,0.8-0.4,1s-0.3,0.5-0.4,0.7l-0.3,0.7c-0.1,0.2-0.2,0.5-0.4,0.8l-0.4,0.8
			c-0.1,0.2-0.3,0.5-0.4,0.7c-0.1,0.2-0.2,0.5-0.3,0.8c0,0.3-0.2,0.6-0.5,1c-0.3,0.3-0.7,0.8-1.2,1.5c-0.5,0.6-0.8,1-0.8,1.1
			l-0.5,0.7c-0.1,0.2-0.3,0.2-0.6,0.2s-0.5-0.1-0.5-0.2c-0.3-0.4-0.5-0.7-0.8-1l-0.5-0.6c-0.1-0.1-0.2-0.2-0.3-0.3s-0.2-0.3-0.4-0.6
			c-0.1-0.1-0.3-0.5-0.5-0.9c-0.2-0.5-0.4-0.8-0.6-1c-0.2-0.2-0.3-0.4-0.4-0.4c-0.1-0.1-0.2-0.2-0.3-0.4s-0.2-0.7-0.2-1.6
			c0-0.8,0-1.3,0-1.5s0-0.4,0.1-0.5s0.2-0.2,0.4-0.2c0.3,0.4,0.3,0.6,0.5,0.8c0.2,0.3,0.4,0.4,0.7,0.6c0.3,0.1,0.5,0.4,0.7,0.7
			c0.3,0.6,0.5,1,0.7,1.3c0.1,0.2,0.4,0.6,0.6,0.9c0.1,0.1,0.3,0.3,0.5,0.6l0.6,0.7c0.3,0.1,0.3,0.1,0.4-0.1c0.3-0.6,0.6-1,0.9-1.3
			c0.3-0.3,0.4-0.5,0.5-0.7s0.2-0.5,0.3-1s0.2-0.9,0.4-1.1c0.1-0.2,0.4-0.5,0.7-0.9c0.4-0.4,0.7-0.7,0.9-0.8
			c0.4-0.3,0.7-0.7,0.8-0.9c0.1-0.3,0.2-0.5,0.5-0.6C248.4,148.8,248.6,148.8,249,148.8C248.9,148.3,249,148.5,249,148.8L249,148.8z
			 M236.8,152.3c0,0.1-0.1,0.4-0.2,0.9c-0.1,0.5-0.2,0.9-0.3,1.4c0,0.3,0,0.7,0,1.2v1l0.1,1.6c0,0.3,0,0.6,0,1.1
			c0,0.4-0.2,0.6-0.4,0.8s-0.5,0.3-0.8,0.3s-0.6,0-0.7-0.1c-0.1-0.1-0.2-0.3-0.2-0.5l-0.1-0.7c-0.1-0.4-0.1-0.8-0.1-1.3
			c0-0.3,0-0.6,0-1l0.1-0.9v-0.9v-0.5c0-0.2,0.1-0.5,0.2-0.9c0.2-0.5,0.3-0.7,0.4-0.9c0.1-0.1,0.3-0.3,0.6-0.6s0.5-0.4,0.7-0.4
			s0.3,0,0.5,0.1C236.7,152.1,236.8,152.2,236.8,152.3L236.8,152.3z M238.2,148.4c0,0.2-0.1,0.5-0.3,0.7l-0.7,0.7
			c-0.1,0.1-0.3,0.3-0.6,0.5s-0.6,0.3-0.9,0.4c-0.3,0.1-0.6,0-0.9-0.1c-0.2-0.1-0.4-0.3-0.6-0.4l-0.6-0.6c-0.3-0.3-0.4-0.6-0.4-0.8
			c0-0.3,0.1-0.5,0.4-0.6c0.2-0.2,0.4-0.3,0.6-0.5c0.2-0.1,0.5-0.3,0.9-0.5s0.8-0.3,1.2-0.3c0.6-0.1,1,0,1.1,0.3l0.2,0.4
			c0.1,0.2,0.2,0.3,0.3,0.4C238.1,148,238.2,148.2,238.2,148.4L238.2,148.4z M232.4,150.3c0,0.3-0.1,0.6-0.2,1.1
			c-0.1,0.4-0.2,0.8-0.4,1s-0.3,0.5-0.4,0.7l-0.3,0.7c-0.1,0.2-0.2,0.5-0.4,0.8l-0.4,0.8c-0.1,0.2-0.3,0.5-0.4,0.7
			c-0.1,0.2-0.2,0.5-0.3,0.8c0,0.3-0.2,0.6-0.5,1c-0.3,0.3-0.7,0.8-1.2,1.4c-0.5,0.6-0.8,1-0.8,1.1l-0.5,0.7
			c-0.1,0.2-0.3,0.2-0.6,0.2s-0.5-0.1-0.5-0.2c-0.3-0.4-0.5-0.7-0.8-1l-0.5-0.6c-0.1-0.1-0.2-0.3-0.3-0.3c-0.1-0.1-0.2-0.3-0.4-0.6
			c-0.1-0.1-0.3-0.5-0.5-0.9c-0.2-0.5-0.4-0.8-0.6-1c-0.2-0.2-0.3-0.4-0.4-0.4c-0.1-0.1-0.2-0.2-0.3-0.4s-0.2-0.7-0.2-1.6
			c0-0.8,0-1.3,0-1.5s0-0.3,0.1-0.5c0.1-0.1,0.2-0.2,0.4-0.2c0.3,0.4,0.3,0.5,0.5,0.8c0.2,0.2,0.4,0.4,0.7,0.6
			c0.3,0.1,0.5,0.4,0.7,0.7c0.3,0.6,0.5,1,0.7,1.3c0.1,0.2,0.4,0.5,0.6,0.9c0.1,0.1,0.3,0.3,0.5,0.6l0.6,0.7
			c0.3,0.1,0.3,0.1,0.4-0.1c0.3-0.6,0.6-1,0.9-1.3c0.3-0.3,0.4-0.5,0.5-0.7s0.2-0.5,0.3-1s0.2-0.9,0.4-1.1c0.1-0.2,0.4-0.5,0.7-0.9
			c0.4-0.4,0.7-0.7,0.9-0.8c0.4-0.3,0.7-0.7,0.8-0.9c0.1-0.3,0.2-0.5,0.5-0.7c0.1-0.1,0.3-0.1,0.5-0.1
			C232.3,149.8,232.4,150,232.4,150.3L232.4,150.3z M208,148.2c0,0.1,0.1,0.3,0.4,0.4c0.2,0.2,0.5,0.3,0.7,0.4
			c0.3,0.1,0.5,0.2,0.5,0.4c0,0.1,0.2,0.2,0.3,0.4c0.2,0.2,0.4,0.3,0.5,0.3c0.1,0.1,0.3,0.2,0.6,0.3c0.3,0.2,0.6,0.3,0.6,0.4
			c0.1,0,0.2,0.1,0.3,0.1c0.2,0,0.3,0,0.3,0c0-0.4,0-0.5-0.1-0.7s-0.2-0.3-0.3-0.4c-0.2-0.2-0.3-0.4-0.5-0.4c-0.1,0-0.3-0.2-0.4-0.3
			c-0.3-0.3-0.4-0.5-0.4-0.5s-0.1-0.1-0.3-0.3s-0.5-0.3-0.8-0.3s-0.6,0-0.9,0c-0.2,0-0.4,0-0.5,0.1C208,148,208,148.1,208,148.2
			L208,148.2z M194,157.4c0-0.2-0.1-0.3-0.2-0.4c-0.1-0.1-0.4-0.1-1,0c-0.4,0-0.9,0.3-1.5,0.7c-0.5,0.4-0.9,0.7-1,1
			c0.1,0.3,0.2,0.3,0.4,0.4c0.4,0.1,0.7,0.2,0.8,0.2s0.3,0,0.6,0c0.5,0,0.8-0.1,1-0.2c0.2-0.1,0.3-0.2,0.4-0.4
			c0.1-0.1,0.2-0.3,0.3-0.5C193.9,157.8,194,157.6,194,157.4L194,157.4z M196.1,157.8c0,0.4-0.2,0.9-0.7,1.4s-1.1,0.8-2,0.8
			c-0.4,0-1,0.1-1.6,0.1s-1.2,0-1.8-0.2c-0.3,0.4-0.3,0.5-0.3,0.6c0,0.5,0,1,0.1,1.5s0.5,0.9,1.1,1.1l1,0.4c0.5,0.2,0.9,0.3,1.2,0.3
			c0.4,0,0.6,0.1,0.6,0.1s0.1,0.1,0.3,0c0.1,0,0.3,0,0.5-0.1c0.2,0,0.4,0,0.4,0.2c0,0.3-0.1,0.6-0.3,0.7c-0.2,0.2-0.5,0.3-0.7,0.5
			c-0.2,0.1-0.4,0.2-0.5,0.1c-0.1,0-0.4,0-0.9,0.1c-0.1,0-0.3,0-0.5,0c-0.2-0.1-0.5-0.1-0.9,0c-0.7,0.1-1.2,0-1.6-0.3
			c-0.4-0.3-0.6-0.5-0.8-0.7c-0.2-0.3-0.5-0.5-1-0.9c-0.5-0.3-0.7-0.6-0.8-0.8c-0.1-0.4-0.2-0.7-0.2-0.9v-1.1c0-0.3,0.2-0.6,0.5-1.1
			s0.5-0.8,0.6-1c0.2-0.3,0.3-0.7,0.4-1.1c0.1-0.4,0.2-0.7,0.2-0.8c0.2-0.4,0.5-0.6,0.7-0.9c0.2-0.2,0.5-0.5,0.9-0.6
			c0.1-0.1,0.3-0.1,0.7-0.2c0.4-0.1,0.6-0.1,0.8-0.1c0.5,0,1,0,1.4,0.1s0.8,0.3,1.1,0.5c0.2,0.2,0.4,0.4,0.6,0.6
			c0.2,0.3,0.4,0.5,0.5,0.7c0.3,0.3,0.4,0.5,0.5,0.6C196.1,157.5,196.1,157.6,196.1,157.8L196.1,157.8z M185.5,155.7
			c0,0.3-0.1,0.6-0.2,1l-0.2,1c0,0.2-0.1,0.3-0.2,0.4c-0.1,0.1-0.2,0.2-0.4,0.4l-0.4,0.4c-0.1,0.1-0.3,0.3-0.6,0.4
			c-0.3,0.1-0.6,0.3-0.9,0.3c-0.3,0.1-0.6,0.2-0.9,0.4c-0.2,0.1-0.3,0.2-0.4,0.4c-0.1,0.2-0.1,0.4-0.2,0.7c0,0.3,0,0.5,0,0.8
			s0,0.6,0,1s0,0.7,0,0.9v0.8c0,0.2-0.1,0.4-0.2,0.6c-0.1,0.2-0.2,0.3-0.3,0.3c-0.2-0.1-0.2-0.2-0.3-0.4s-0.4-0.5-0.8-0.9
			c-0.4-0.4-0.7-0.7-0.7-0.9v-0.9c0-0.5,0-1.1,0-1.7l0.1-2.1c0-0.4,0.1-0.7,0.1-1c0.1-0.2,0.2-0.5,0.4-0.7c0.2-0.3,0.4-0.5,0.6-0.7
			c0.1-0.1,0.2-0.2,0.4-0.3s0.3-0.1,0.4,0c0.2,0.2,0.2,0.3,0.2,0.4v0.8c0,0.2,0,0.5,0.1,0.7c0.2,0.1,0.2,0,0.3-0.1
			c0.2-0.2,0.4-0.4,0.6-0.6l0.6-0.5c0.3-0.3,0.6-0.5,0.9-0.7c0.3-0.2,0.7-0.3,1.1-0.3c0.2,0,0.4,0,0.6,0
			C185.4,155.4,185.5,155.5,185.5,155.7L185.5,155.7z M176,157.8c0,0.1-0.1,0.4-0.2,0.9c-0.1,0.5-0.2,0.9-0.3,1.4c0,0.3,0,0.7,0,1.2
			v1l0.1,1.6c0,0.3,0,0.6,0,1.1c0,0.4-0.2,0.6-0.4,0.8s-0.5,0.3-0.8,0.3s-0.6,0-0.7-0.1c-0.1-0.1-0.2-0.3-0.2-0.5l-0.1-0.7
			c-0.1-0.4-0.1-0.8-0.1-1.3c0-0.3,0-0.6,0-0.9l0.1-0.9v-0.9v-0.5c0-0.2,0.1-0.5,0.3-0.9c0.2-0.5,0.3-0.7,0.4-0.9
			c0.1-0.1,0.3-0.3,0.6-0.6s0.5-0.4,0.7-0.4s0.3,0,0.5,0.1C176,157.5,176,157.7,176,157.8L176,157.8z M177.5,153.9
			c0,0.2-0.1,0.4-0.3,0.7l-0.7,0.7c-0.1,0.1-0.3,0.3-0.6,0.5s-0.6,0.3-0.9,0.4c-0.3,0.1-0.6,0-0.9-0.1c-0.2-0.1-0.4-0.3-0.6-0.4
			l-0.6-0.6c-0.3-0.3-0.4-0.6-0.4-0.8c0-0.3,0.1-0.5,0.4-0.6c0.2-0.2,0.5-0.3,0.6-0.5c0.2-0.2,0.5-0.3,0.9-0.5s0.8-0.3,1.2-0.3
			c0.6-0.1,1,0,1.1,0.3l0.2,0.4c0.1,0.2,0.2,0.3,0.3,0.4C177.4,153.4,177.5,153.6,177.5,153.9L177.5,153.9z M170.2,163.4
			c0,0.3,0,0.8-0.1,1.2l-0.2,1c-0.1,0.4-0.3,0.7-0.5,0.9s-0.5,0.5-0.6,0.8c-0.1,0.2-0.3,0.4-0.5,0.5s-0.4,0.2-0.6,0.2
			c-0.2-0.3-0.2-0.4-0.2-0.6c0.1-0.4,0.1-0.8,0.1-1.3s0-0.9,0-1.4s0.1-1,0.1-1.4l0.1-0.7c0-0.1,0-0.4-0.1-0.8
			c-0.1-0.5-0.1-0.8-0.1-0.9c-0.1-0.7-0.3-1.1-0.4-1.2c-0.2-0.1-0.4-0.1-0.6-0.1c-0.2,0-0.4,0.2-0.5,0.5s-0.2,0.5-0.2,0.7
			c0,0.3-0.1,0.5-0.1,0.7s0,0.4-0.1,0.6c0,0.2-0.1,0.4-0.3,0.6l-0.3,0.6l-0.2,0.5c-0.1,0.3-0.2,0.5-0.2,0.7l-0.2,1.1
			c-0.1,0.4-0.1,0.7-0.1,0.8c0,0.2-0.2,0.4-0.6,0.6c-0.4,0.2-0.8,0.3-1.1,0.4c-0.3,0-0.4-0.1-0.4-0.3s0-0.4,0-0.6
			c0-0.7,0-1.3,0.1-1.8c0-0.6,0.1-1.4,0.1-2.4s0-1.8-0.1-2.1c-0.1-0.4-0.1-1.1-0.1-2.1c0-0.2,0.1-0.3,0.3-0.4
			c0.2-0.1,0.3-0.2,0.4-0.2c0.2,0.3,0.4,0.6,0.6,0.9l0.3,0.5c0.2,0.2,0.3,0.1,0.4,0c0.2-0.4,0.5-0.8,0.9-1.1
			c0.4-0.4,0.8-0.5,1.2-0.6c0.3,0,0.6,0,0.9,0.2c0.3,0.2,0.6,0.3,0.9,0.6l0.7,0.6c0.3,0.2,0.5,0.4,0.6,0.6c0.2,0.2,0.3,0.4,0.4,0.6
			c0.1,0.2,0.2,0.4,0.2,0.5c0.1,0.3,0.1,0.7,0.1,1.4C170.2,162.1,170.2,162.7,170.2,163.4L170.2,163.4z M158.1,160.7
			c0-0.2-0.1-0.3-0.2-0.4c-0.1-0.1-0.4-0.1-1,0c-0.4,0-0.9,0.3-1.4,0.7s-0.9,0.7-1,1c0.1,0.3,0.2,0.3,0.4,0.4
			c0.4,0.1,0.7,0.2,0.8,0.2s0.3,0,0.6,0c0.5,0,0.8-0.1,1-0.2c0.2-0.1,0.3-0.2,0.4-0.4c0.1-0.1,0.2-0.3,0.3-0.5
			C158,161.1,158.1,160.8,158.1,160.7L158.1,160.7z M160.3,161c0,0.4-0.2,0.9-0.7,1.4s-1.1,0.8-2,0.8c-0.4,0-1,0.1-1.6,0.1
			s-1.2,0-1.8-0.2c-0.3,0.4-0.3,0.5-0.3,0.6c0,0.5,0,1,0.1,1.5s0.5,0.9,1.1,1.1l1,0.4c0.5,0.2,0.9,0.3,1.2,0.3
			c0.4,0,0.6,0.1,0.6,0.1s0.1,0.1,0.3,0c0.1,0,0.3,0,0.6-0.1c0.2,0,0.4,0,0.4,0.2c0,0.3-0.1,0.6-0.3,0.7c-0.2,0.2-0.5,0.3-0.7,0.5
			c-0.2,0.1-0.4,0.2-0.5,0.1c-0.1,0-0.4,0-0.9,0.1c-0.1,0-0.3,0-0.5,0s-0.5-0.1-0.9,0c-0.7,0.1-1.2,0-1.6-0.3
			c-0.4-0.2-0.6-0.5-0.8-0.7c-0.2-0.3-0.5-0.5-1-0.9c-0.4-0.3-0.7-0.6-0.8-0.8c-0.1-0.4-0.2-0.7-0.2-0.9v-1.1c0-0.3,0.2-0.7,0.5-1.1
			c0.3-0.5,0.5-0.8,0.6-1c0.2-0.3,0.3-0.7,0.4-1.1c0.1-0.4,0.2-0.7,0.2-0.8c0.2-0.3,0.5-0.6,0.7-0.9c0.2-0.2,0.5-0.5,0.9-0.6
			c0.1-0.1,0.3-0.1,0.7-0.2c0.4-0.1,0.6-0.1,0.8-0.1c0.5,0,1,0,1.4,0.1s0.8,0.3,1.1,0.5c0.2,0.2,0.4,0.4,0.6,0.6
			c0.2,0.3,0.4,0.5,0.5,0.7c0.3,0.3,0.4,0.5,0.5,0.6C160.2,160.7,160.3,160.9,160.3,161L160.3,161z M149.6,157.7
			c0,0.3-0.1,0.6-0.2,1.1c-0.1,0.4-0.2,0.7-0.4,1c-0.2,0.2-0.3,0.5-0.4,0.7l-0.3,0.7c-0.1,0.2-0.2,0.5-0.4,0.8l-0.4,0.8
			c-0.1,0.2-0.3,0.5-0.4,0.7c-0.1,0.2-0.2,0.5-0.3,0.8c0,0.3-0.2,0.6-0.5,1c-0.3,0.3-0.7,0.8-1.2,1.4c-0.5,0.6-0.8,1-0.8,1.1
			l-0.5,0.7c-0.1,0.2-0.3,0.2-0.6,0.2s-0.5-0.1-0.5-0.2c-0.3-0.4-0.5-0.7-0.8-1l-0.5-0.6c-0.1-0.1-0.2-0.3-0.3-0.3
			c-0.1-0.1-0.2-0.3-0.4-0.6c-0.1-0.1-0.3-0.5-0.5-0.9c-0.2-0.5-0.4-0.8-0.6-1c-0.2-0.2-0.3-0.4-0.4-0.4c-0.1-0.1-0.2-0.2-0.3-0.4
			s-0.2-0.7-0.2-1.6c0-0.8,0-1.3,0-1.5s0-0.3,0.1-0.5c0.1-0.1,0.2-0.2,0.4-0.2c0.3,0.4,0.3,0.6,0.5,0.8s0.4,0.4,0.7,0.6
			c0.3,0.1,0.5,0.4,0.7,0.7c0.3,0.6,0.5,1,0.7,1.3c0.1,0.2,0.4,0.5,0.6,0.9c0.1,0.1,0.3,0.3,0.5,0.6l0.6,0.7
			c0.3,0.1,0.3,0.1,0.4-0.1c0.3-0.6,0.6-1,0.9-1.3c0.3-0.3,0.4-0.5,0.5-0.7s0.2-0.5,0.3-1s0.2-0.9,0.4-1.1c0.1-0.2,0.4-0.5,0.7-0.9
			c0.4-0.4,0.7-0.7,0.9-0.8c0.4-0.4,0.7-0.7,0.8-0.9c0.1-0.3,0.2-0.5,0.5-0.6c0.1-0.1,0.3-0.1,0.5-0.1
			C149.5,157.3,149.6,157.4,149.6,157.7L149.6,157.7z M136,162.6c0-0.2-0.1-0.3-0.2-0.4c-0.1-0.1-0.4-0.1-1,0
			c-0.4,0-0.9,0.3-1.4,0.7s-0.9,0.7-1,1c0.1,0.3,0.2,0.3,0.4,0.4c0.4,0.1,0.7,0.2,0.8,0.2s0.3,0,0.6,0c0.5,0,0.8-0.1,1-0.2
			c0.2-0.1,0.3-0.2,0.4-0.4c0.1-0.1,0.2-0.3,0.3-0.5C135.9,163,136,162.8,136,162.6L136,162.6z M138.2,163c0,0.4-0.2,0.9-0.7,1.4
			s-1.1,0.8-2,0.8c-0.4,0-1,0.1-1.6,0.1s-1.2,0-1.8-0.2c-0.3,0.4-0.3,0.5-0.3,0.6c0,0.5,0,1,0.1,1.5s0.5,0.9,1.1,1.1l1,0.4
			c0.5,0.2,0.9,0.3,1.2,0.3c0.4,0,0.6,0.1,0.6,0.1s0.1,0.1,0.3,0c0.1,0,0.3,0,0.6-0.1c0.2,0,0.4,0,0.4,0.2c0,0.3-0.1,0.6-0.3,0.7
			c-0.2,0.2-0.5,0.3-0.7,0.5c-0.2,0.1-0.4,0.2-0.5,0.1c-0.1,0-0.4,0-0.9,0.1c-0.1,0-0.3,0-0.5-0.1c-0.2,0-0.5-0.1-0.9,0
			c-0.7,0.1-1.2,0-1.6-0.3c-0.4-0.3-0.6-0.5-0.8-0.7c-0.2-0.3-0.5-0.5-1-0.9c-0.4-0.3-0.7-0.6-0.8-0.8c-0.1-0.4-0.2-0.7-0.2-0.9
			v-1.1c0-0.3,0.2-0.7,0.5-1.1c0.3-0.5,0.5-0.8,0.6-1c0.2-0.3,0.3-0.7,0.4-1.1c0.1-0.4,0.2-0.7,0.2-0.8c0.2-0.3,0.5-0.6,0.7-0.9
			c0.2-0.2,0.5-0.5,0.9-0.6c0.1-0.1,0.3-0.1,0.7-0.2c0.4-0.1,0.6-0.1,0.8-0.1c0.5-0.1,1,0,1.4,0.1s0.8,0.3,1.1,0.5
			c0.2,0.2,0.4,0.4,0.6,0.6c0.2,0.3,0.4,0.5,0.5,0.7c0.3,0.3,0.4,0.5,0.5,0.6C138.1,162.7,138.2,162.9,138.2,163L138.2,163z
			 M127.5,160.9c0,0.3-0.1,0.6-0.2,1l-0.2,1c0,0.2-0.1,0.3-0.2,0.4c-0.1,0.1-0.2,0.2-0.4,0.4l-0.4,0.4c-0.1,0.1-0.3,0.3-0.6,0.4
			c-0.3,0.1-0.6,0.3-0.9,0.3c-0.3,0.1-0.6,0.2-0.9,0.4c-0.2,0.1-0.3,0.2-0.4,0.4s-0.1,0.4-0.2,0.7c0,0.3,0,0.5,0,0.8s0,0.6,0,1
			s0,0.7,0,0.9v0.8c0,0.2-0.1,0.4-0.2,0.6c-0.1,0.2-0.2,0.3-0.3,0.3c-0.2-0.1-0.2-0.2-0.3-0.3c-0.1-0.2-0.4-0.5-0.8-0.9
			s-0.7-0.7-0.7-0.9v-0.9c0-0.5,0-1.1,0-1.7l0.1-2.1c0-0.4,0.1-0.7,0.1-1c0.1-0.2,0.2-0.5,0.4-0.7c0.2-0.3,0.4-0.5,0.6-0.7
			c0.1-0.1,0.2-0.2,0.4-0.3c0.2-0.1,0.3-0.1,0.4,0c0.2,0.2,0.2,0.3,0.2,0.4v0.8c0,0.2,0,0.5,0.1,0.7c0.2,0.1,0.2,0,0.3-0.1
			c0.2-0.2,0.4-0.4,0.6-0.6l0.6-0.5c0.3-0.3,0.6-0.5,0.9-0.7s0.7-0.3,1.1-0.4c0.2,0,0.4,0,0.6,0
			C127.4,160.6,127.5,160.7,127.5,160.9L127.5,160.9z M115.5,166.3c0-0.4-0.1-0.7-0.3-0.8c-0.2-0.1-0.5-0.2-0.8-0.2
			c-0.5,0-0.7,0.1-0.8,0.2l-0.3,1c0,0.2-0.2,0.4-0.3,0.7l-0.3,0.5c-0.1,0.2-0.3,0.5-0.4,1c-0.1,0.2-0.1,0.4-0.1,0.6
			c0,0.2,0.1,0.2,0.3,0.1c0.3-0.2,0.7-0.3,1.2-0.5s0.9-0.4,1.1-0.6c0.2-0.1,0.3-0.4,0.4-0.7C115.4,167.2,115.5,166.8,115.5,166.3
			L115.5,166.3z M117.8,165.3c0,0.2,0,0.6-0.1,1.1s-0.2,0.9-0.3,1.2c-0.1,0.3-0.3,0.7-0.5,1s-0.5,0.6-1,0.9
			c-0.3,0.2-0.7,0.4-1.1,0.6l-1,0.4l-0.5,0.2c-0.1,0-0.2,0.2-0.5,0.4c-0.2,0.2-0.3,0.3-0.5,0.4c-0.1,0.1-0.3,0.2-0.4,0.4
			c-0.2,0.3-0.4,0.6-0.6,0.8c-0.2,0.3-0.4,0.5-0.5,0.7l-0.3,0.5c-0.1,0.2-0.2,0.2-0.4,0.3c-0.2,0-0.3-0.1-0.4-0.2
			c0-0.2-0.1-0.3-0.1-0.4c0-0.3,0-0.5,0-0.7s0-0.6,0-1c0-0.2,0-0.7,0.1-1.7s0.2-1.7,0.2-2.2c0-0.1,0.1-0.3,0.3-0.6
			c0.2-0.3,0.3-0.6,0.4-0.9c0.1-0.2,0.1-0.6,0.2-1.1l0.2-1.1c0-0.2,0.1-0.5,0.1-0.9l0.2-1c0-0.1,0.1-0.3,0.3-0.5
			c0.2-0.2,0.3-0.5,0.5-0.9c0.1-0.2,0.1-0.3,0.2-0.3s0.2-0.1,0.5-0.2c0.1-0.1,0.3,0,0.4,0.1s0.2,0.3,0.2,0.5s0,0.4,0,0.7
			s0,0.6,0,0.8c0,0.1,0,0.2,0,0.4c0.4,0,0.7-0.1,0.9-0.2c0.2,0,0.5-0.1,0.8-0.1c0.6-0.1,1.2,0.2,1.8,0.8
			C117.5,164.3,117.8,164.8,117.8,165.3L117.8,165.3z"/>
	</g>
</g>
</svg>
