<?xml version="1.0" encoding="utf-8"?>
<!-- Generator: Adobe Illustrator 23.0.2, SVG Export Plug-In . SVG Version: 6.00 Build 0)  -->
<svg version="1.1" id="Livello_1" xmlns="http://www.w3.org/2000/svg" xmlns:xlink="http://www.w3.org/1999/xlink" x="0px" y="0px"
	 viewBox="0 0 100 50" style="enable-background:new 0 0 100 50;" xml:space="preserve">
<style type="text/css">
	.st0{fill:#FFFFFF;}
</style>
<path class="st0" d="M10.29,10.39c-2.14,1.25-3.84,2.94-5.1,5.07c-1.26,2.14-1.89,4.47-1.89,6.99v7.36c0,2.64,0.37,4.81,1.11,6.52
	c1.04,2.42,2.62,4.38,4.74,5.91c2.12,1.52,4.5,2.38,7.13,2.56V26.69h17v3.68c0,2.38-0.35,4.5-1.06,6.35
	c-1.15,3.08-3.08,5.56-5.8,7.41c-2.71,1.86-5.78,2.79-9.2,2.79c-3.23,0-6.18-0.88-8.83-2.65c-2.66-1.76-4.6-4.11-5.82-7.05
	c-0.89-2.08-1.34-4.55-1.34-7.41v-7.36c0-2.9,0.72-5.57,2.15-8.03c1.43-2.45,3.37-4.39,5.82-5.82c2.45-1.43,5.13-2.15,8.03-2.15
	c2.41,0,4.63,0.4,6.63,1.2c2.01,0.8,3.71,1.96,5.13,3.48c1.15,1.26,2.09,2.68,2.81,4.24c0.72,1.56,1.09,3.14,1.09,4.74h-2.01
	c-0.04-1.37-0.38-2.73-1.03-4.07c-0.65-1.34-1.48-2.54-2.48-3.62c-2.49-2.6-5.87-3.9-10.14-3.9C14.74,8.52,12.42,9.14,10.29,10.39z
	 M31.22,28.7H18.29v16.11c2.68-0.19,5.08-1.03,7.22-2.54c2.14-1.5,3.71-3.5,4.71-5.99c0.67-1.75,1-3.71,1-5.91V28.7z"/>
<path class="st0" d="M44.51,25.44c-1.99-0.76-3.55-1.8-4.68-3.12c-1.13-1.32-1.7-3.02-1.7-5.1c0-2.15,0.57-4.05,1.7-5.68
	c1.13-1.63,2.73-2.9,4.79-3.79c2.06-0.89,4.45-1.34,7.16-1.34c2.6,0,4.99,0.55,7.16,1.64c2.17,1.1,3.89,2.63,5.16,4.6
	c1.26,1.97,1.89,4.22,1.89,6.74h-2.06c0-2.19-0.54-4.12-1.62-5.8c-1.08-1.67-2.55-2.96-4.4-3.87c-1.86-0.91-3.92-1.37-6.19-1.37
	c-2.01,0-3.88,0.32-5.63,0.95c-1.75,0.63-3.17,1.6-4.26,2.9c-1.1,1.3-1.64,2.94-1.64,4.9c0,1.78,0.52,3.2,1.56,4.26
	c1.04,1.06,2.4,1.87,4.07,2.42c1.67,0.56,4.01,1.15,7.02,1.78c3.05,0.63,5.41,1.24,7.11,1.81c1.69,0.58,3.12,1.53,4.29,2.87
	c1.17,1.34,1.76,3.21,1.76,5.63c0,2.42-0.64,4.45-1.92,6.1c-1.28,1.65-2.98,2.89-5.1,3.71c-2.12,0.82-4.42,1.23-6.91,1.23
	c-3.08,0-5.8-0.58-8.14-1.73c-2.34-1.15-4.13-2.78-5.38-4.88c-1.25-2.1-1.87-4.51-1.87-7.22h2.06c0,2.38,0.53,4.46,1.59,6.24
	c1.06,1.78,2.59,3.17,4.6,4.15c2.01,0.98,4.38,1.48,7.13,1.48c3.42,0,6.25-0.82,8.5-2.45c2.25-1.63,3.37-3.86,3.37-6.69
	c0-1.93-0.48-3.42-1.45-4.46c-0.97-1.04-2.18-1.79-3.65-2.26c-1.47-0.46-3.67-0.99-6.6-1.59C49.07,26.9,46.5,26.2,44.51,25.44z"/>
</svg>
