<svg id="3b3f5db4-7454-4fdf-a390-17c4a90e9bad" data-name="Livello 1" xmlns="http://www.w3.org/2000/svg" viewBox="0 0 301.11 70.67"><defs><style>.f2768365-35db-471c-9315-790c43f08845{fill:rgb(46,46,46);}</style></defs><title>logomods</title><path class="f2768365-35db-471c-9315-790c43f08845" d="M34.58,34.07,47.5,11.63q.27-.34.92-1.09a2.51,2.51,0,0,1,2-.75H55a1.86,1.86,0,0,1,1.84,1.84V55.56A1.86,1.86,0,0,1,55,57.4H49.54a1.86,1.86,0,0,1-1.84-1.84V29l-8.84,15.3a5.82,5.82,0,0,1-1,1.12,2.19,2.19,0,0,1-1.56.58H32.81a2.18,2.18,0,0,1-1.56-.58,5.79,5.79,0,0,1-1-1.12L21.46,29V55.56a1.86,1.86,0,0,1-1.84,1.84H14.11a1.86,1.86,0,0,1-1.84-1.84V11.63A1.86,1.86,0,0,1,14.11,9.8h4.62a2.51,2.51,0,0,1,2,.75q.65.75.92,1.09Z"/><path class="f2768365-35db-471c-9315-790c43f08845" d="M65.86,27.55a24,24,0,0,1,1.46-7.17A16.41,16.41,0,0,1,71,14.52a17.62,17.62,0,0,1,6.12-3.94,23.48,23.48,0,0,1,8.7-1.46,23.75,23.75,0,0,1,8.64,1.43,17,17,0,0,1,6.12,3.94,17.25,17.25,0,0,1,3.74,5.85,23.24,23.24,0,0,1,1.5,7.21q.07,1.29.1,2.86t0,3.23q0,1.67,0,3.23t-.1,2.86a24.09,24.09,0,0,1-1.46,7.17,16.41,16.41,0,0,1-3.71,5.85,17.15,17.15,0,0,1-6.15,3.91,24.05,24.05,0,0,1-8.67,1.43,24,24,0,0,1-8.7-1.43A17.2,17.2,0,0,1,71,52.74a16.39,16.39,0,0,1-3.71-5.85,24,24,0,0,1-1.46-7.17q-.07-1.29-.1-2.86t0-3.23q0-1.67,0-3.23T65.86,27.55Zm30.8.34A10.7,10.7,0,0,0,93.5,20.3a10.79,10.79,0,0,0-7.65-2.69A10.79,10.79,0,0,0,78.2,20.3,10.7,10.7,0,0,0,75,27.89q-.14,2.58-.14,5.75T75,39.38a10.57,10.57,0,0,0,3.16,7.55,10.87,10.87,0,0,0,7.65,2.65,10.87,10.87,0,0,0,7.65-2.65,10.58,10.58,0,0,0,3.16-7.55q.14-2.58.14-5.75T96.66,27.89Z"/><path class="f2768365-35db-471c-9315-790c43f08845" d="M133.45,9.8a25.94,25.94,0,0,1,8.74,1.33,16.64,16.64,0,0,1,6.19,3.77,16.42,16.42,0,0,1,3.81,5.92,26.3,26.3,0,0,1,1.6,7.75,93.51,93.51,0,0,1,0,10.06,26.3,26.3,0,0,1-1.6,7.75,16.67,16.67,0,0,1-3.77,5.92,16.42,16.42,0,0,1-6.09,3.77,24.88,24.88,0,0,1-8.53,1.33H116.66a1.86,1.86,0,0,1-1.84-1.84V11.63a1.86,1.86,0,0,1,1.84-1.84ZM144.6,28.57a13.69,13.69,0,0,0-.85-4,9.22,9.22,0,0,0-2.11-3.26,9.61,9.61,0,0,0-3.5-2.18,14.51,14.51,0,0,0-5-.78H124V48.9h9.45a13.45,13.45,0,0,0,4.83-.78,9.56,9.56,0,0,0,3.4-2.14,9,9,0,0,0,2.07-3.26,14.07,14.07,0,0,0,.85-4.08A93.51,93.51,0,0,0,144.6,28.57Z"/><path class="f2768365-35db-471c-9315-790c43f08845" d="M179,9.12a24.1,24.1,0,0,1,8,1.22,19.84,19.84,0,0,1,5.78,3.06,13.22,13.22,0,0,1,3.5,4,10.41,10.41,0,0,1,1.33,4.18,1.51,1.51,0,0,1-.51,1.33,2,2,0,0,1-1.33.51H191a2.82,2.82,0,0,1-1.73-.44,4.49,4.49,0,0,1-1.05-1.19,8.86,8.86,0,0,0-3.09-3A12.06,12.06,0,0,0,179,17.62a14.79,14.79,0,0,0-3.37.37,9.7,9.7,0,0,0-2.79,1.09A5.77,5.77,0,0,0,171,20.81a4.08,4.08,0,0,0-.68,2.31,4.56,4.56,0,0,0,.65,2.55,5.07,5.07,0,0,0,2.18,1.7,22.26,22.26,0,0,0,4,1.33q2.52.61,6.26,1.43a44,44,0,0,1,7,2.07,16.39,16.39,0,0,1,4.83,2.86,10.68,10.68,0,0,1,2.79,3.84,12.68,12.68,0,0,1,.92,5,12.14,12.14,0,0,1-1.36,5.68A13.07,13.07,0,0,1,193.77,54a19.62,19.62,0,0,1-6.19,3,29,29,0,0,1-8.23,1.09,28.3,28.3,0,0,1-7.28-.92,21.28,21.28,0,0,1-6.15-2.65,14.61,14.61,0,0,1-4.32-4.18,11,11,0,0,1-1.84-5.44,1.5,1.5,0,0,1,.51-1.33A2,2,0,0,1,161.6,43h4.76a3.19,3.19,0,0,1,1.77.41,3.07,3.07,0,0,1,1,1.22,13.1,13.1,0,0,0,1.16,1.77A6.27,6.27,0,0,0,172.14,48,11.12,11.12,0,0,0,175,49.14a17.79,17.79,0,0,0,4.32.44,24.82,24.82,0,0,0,3.94-.31,11.5,11.5,0,0,0,3.33-1,7.11,7.11,0,0,0,2.31-1.77,3.93,3.93,0,0,0,.88-2.62,3.32,3.32,0,0,0-1-2.45A7.65,7.65,0,0,0,186,39.79a40.25,40.25,0,0,0-4.79-1.29q-2.85-.61-6.6-1.56a35.25,35.25,0,0,1-6-1.94,14,14,0,0,1-4.22-2.75,10.3,10.3,0,0,1-2.48-3.84,15.23,15.23,0,0,1-.82-5.27,11.93,11.93,0,0,1,1.36-5.64,13.44,13.44,0,0,1,3.74-4.42,18.36,18.36,0,0,1,5.68-2.89A23.27,23.27,0,0,1,179,9.12Z"/><path class="f2768365-35db-471c-9315-790c43f08845" d="M249,47.06a27.2,27.2,0,0,1,5.82.54q2.45.54,2.45,1.29v6.66q0,.75-2.45,1.29a27.13,27.13,0,0,1-5.82.54H220.49a27.08,27.08,0,0,1-5.82-.54c-1.64-.36-2.45-.79-2.45-1.29V48.9c0-.5.81-.93,2.45-1.29a27.14,27.14,0,0,1,5.82-.54Z"/><path class="f2768365-35db-471c-9315-790c43f08845" d="M224.43,28.43a3.51,3.51,0,0,1,2,.54,1.55,1.55,0,0,1,.83,1.29v6.66a1.55,1.55,0,0,1-.83,1.29,3.5,3.5,0,0,1-2,.54H214.8a3.49,3.49,0,0,1-2-.54,1.55,1.55,0,0,1-.83-1.29V30.27a1.55,1.55,0,0,1,.83-1.29,3.5,3.5,0,0,1,2-.54Z"/><path class="f2768365-35db-471c-9315-790c43f08845" d="M257.32,9.8a40.75,40.75,0,0,1,7.14.54q3,.54,3,1.29V18.3q0,.75-3,1.29a40.65,40.65,0,0,1-7.14.54H222.37a40.57,40.57,0,0,1-7.14-.54c-2-.36-3-.79-3-1.29V11.63c0-.5,1-.93,3-1.29a40.66,40.66,0,0,1,7.14-.54Z"/><path class="f2768365-35db-471c-9315-790c43f08845" d="M276,28.43a31.63,31.63,0,0,1,6.28.54q2.64.54,2.64,1.29v6.66q0,.75-2.64,1.29a31.56,31.56,0,0,1-6.28.54H245.31a31.49,31.49,0,0,1-6.28-.54c-1.77-.36-2.64-.79-2.64-1.29V30.27c0-.5.88-.93,2.64-1.29a31.56,31.56,0,0,1,6.28-.54Z"/></svg>
