<?xml version="1.0" encoding="utf-8"?>
<!-- Generator: Adobe Illustrator 22.1.0, SVG Export Plug-In . SVG Version: 6.00 Build 0)  -->
<svg version="1.1" id="Capa_1" xmlns="http://www.w3.org/2000/svg" xmlns:xlink="http://www.w3.org/1999/xlink" x="0px" y="0px"
	 viewBox="0 0 612 612" style="enable-background:new 0 0 612 612;" xml:space="preserve">
<style type="text/css">
	.st0{fill:#9BAFCC;}
</style>
<g>
	<g id="screen-rotation">
		<path class="st0" d="M419.5,63.8c84.1,38.2,142.8,119.9,153,216.8h38.2C595.4,122.4,465.4,0,304.7,0c-5.1,0-10.2,0-17.9,0
			l96.9,96.9L419.5,63.8z M258.8,43.3c-15.3-15.3-38.2-15.3-53.6,0L42.1,206.5c-15.3,15.3-15.3,38.2,0,53.5l306,306
			c15.3,15.3,38.2,15.3,53.6,0l163.2-163.2c15.3-15.3,15.3-38.2,0-53.6L258.8,43.3z M376.1,540.6l-306-306L233.3,71.4l306,306
			L376.1,540.6z M190,548.2C105.8,510,47.2,428.4,37,331.5H1.3C14,489.6,144.1,612,304.7,612c5.1,0,10.2,0,17.9,0l-96.9-96.9
			L190,548.2z"/>
	</g>
</g>
</svg>
